SplineFontDB: 3.2
FontName: DonkeyKong
FullName: Donkey Kong
FamilyName: Donkey Kong
Weight: Medium
Copyright: 
Version: 1.00
ItalicAngle: 0
UnderlinePosition: -97.6562
UnderlineWidth: 39.0625
Ascent: 875
Descent: 125
InvalidEm: 0
LayerCount: 2
Layer: 0 0 "Back" 1
Layer: 1 0 "Fore" 0
XUID: [1021 140 1293607838 5610107]
FSType: 0
OS2Version: 0
OS2_WeightWidthSlopeOnly: 0
OS2_UseTypoMetrics: 0
CreationTime: 1696890397
ModificationTime: 1696890430
PfmFamily: 33
TTFWeight: 500
TTFWidth: 5
LineGap: 70
VLineGap: 0
Panose: 2 0 6 4 0 0 0 0 0 0
OS2TypoAscent: 0
OS2TypoAOffset: 1
OS2TypoDescent: 0
OS2TypoDOffset: 1
OS2TypoLinegap: 0
OS2WinAscent: 0
OS2WinAOffset: 1
OS2WinDescent: 0
OS2WinDOffset: 1
HheadAscent: 0
HheadAOffset: 1
HheadDescent: 0
HheadDOffset: 1
OS2Vendor: 'PfEd'
MarkAttachClasses: 1
DEI: 91125
Encoding: UnicodeBmp
Compacted: 1
UnicodeInterp: none
NameList: AGL For New Fonts
DisplaySize: -24
AntiAlias: 1
FitToEm: 1
WinInfo: 0 50 22
BeginPrivate: 0
EndPrivate
TeXData: 1 0 0 346030 173015 115343 0 1048576 115343 783286 444596 497025 792723 393216 433062 380633 303038 157286 324010 404750 52429 2506097 1059062 262144
BeginChars: 65536 120

StartChar: .notdef
Encoding: -1 -1 0
Width: 512
VWidth: 1024
Flags: W
LayerCount: 2
Fore
SplineSet
448 640 m 25
 448 704 l 25
 64 704 l 25
 64 640 l 25
 448 640 l 25
448 576 m 25
 448 640 l 25
 320 640 l 25
 320 576 l 25
 448 576 l 25
192 576 m 25
 192 640 l 25
 64 640 l 25
 64 576 l 25
 192 576 l 25
448 512 m 25
 448 576 l 25
 384 576 l 25
 384 512 l 25
 448 512 l 25
320 512 m 25
 320 576 l 25
 192 576 l 25
 192 512 l 25
 320 512 l 25
128 512 m 25
 128 576 l 25
 64 576 l 25
 64 512 l 25
 128 512 l 25
448 448 m 25
 448 512 l 25
 384 512 l 25
 384 448 l 25
 448 448 l 25
320 448 m 25
 320 512 l 25
 192 512 l 25
 192 448 l 25
 320 448 l 25
128 448 m 25
 128 512 l 25
 64 512 l 25
 64 448 l 25
 128 448 l 25
448 384 m 25
 448 448 l 25
 384 448 l 25
 384 384 l 25
 448 384 l 25
320 384 m 25
 320 448 l 25
 64 448 l 25
 64 384 l 25
 320 384 l 25
448 320 m 25
 448 384 l 25
 320 384 l 25
 320 320 l 25
 448 320 l 25
256 320 m 25
 256 384 l 25
 64 384 l 25
 64 320 l 25
 256 320 l 25
448 256 m 25
 448 320 l 25
 320 320 l 25
 320 256 l 25
 448 256 l 25
256 256 m 25
 256 320 l 25
 64 320 l 25
 64 256 l 25
 256 256 l 25
448 192 m 25
 448 256 l 25
 64 256 l 25
 64 192 l 25
 448 192 l 25
448 128 m 25
 448 192 l 25
 320 192 l 25
 320 128 l 25
 448 128 l 25
256 128 m 25
 256 192 l 25
 64 192 l 25
 64 128 l 25
 256 128 l 25
448 64 m 25
 448 128 l 25
 320 128 l 25
 320 64 l 25
 448 64 l 25
256 64 m 25
 256 128 l 25
 64 128 l 25
 64 64 l 25
 256 64 l 25
448 0 m 25
 448 64 l 25
 64 64 l 25
 64 0 l 25
 448 0 l 25
EndSplineSet
Validated: 5
EndChar

StartChar: uni0021
Encoding: 33 33 4
Width: 500
Flags: W
HStem: 0 125<188 312> 418 20G<188 312> 418 20G<188 312>
VStem: 188 124<0 125 188 438>
LayerCount: 2
Fore
SplineSet
188 125 m 1x90
 312 125 l 1
 312 0 l 1
 188 0 l 1
 188 125 l 1x90
188 438 m 1xd0
 312 438 l 1
 312 188 l 1
 188 188 l 1
 188 438 l 1xd0
EndSplineSet
Validated: 1
EndChar

StartChar: uni0022
Encoding: 34 34 5
Width: 500
Flags: W
HStem: 250 125<188 250 312 375>
VStem: 188 62<250 375> 312 63<250 375>
LayerCount: 2
Fore
SplineSet
188 375 m 1
 250 375 l 1
 250 250 l 1
 188 250 l 1
 188 375 l 1
312 375 m 1
 375 375 l 1
 375 250 l 1
 312 250 l 1
 312 375 l 1
EndSplineSet
Validated: 1
EndChar

StartChar: uni0023
Encoding: 35 35 6
Width: 500
Flags: W
HStem: 0 21G<188 250 312 375> 0 21G<188 250 312 375> 125 63<125 188 250 312 375 438> 250 62<125 188 250 312 375 438> 418 20G<188 250 312 375> 418 20G<188 250 312 375>
VStem: 188 62<0 125 188 250 312 438> 312 63<0 125 188 250 312 438>
LayerCount: 2
Fore
SplineSet
438 125 m 1xbb
 375 125 l 1
 375 0 l 1
 312 0 l 1
 312 125 l 1
 250 125 l 1
 250 0 l 1
 188 0 l 1
 188 125 l 1
 125 125 l 1
 125 188 l 1
 188 188 l 1
 188 250 l 1
 125 250 l 1
 125 312 l 1
 188 312 l 1
 188 438 l 1
 250 438 l 1
 250 312 l 1
 312 312 l 1
 312 438 l 1
 375 438 l 1
 375 312 l 1
 438 312 l 1
 438 250 l 1
 375 250 l 1
 375 188 l 1
 438 188 l 1
 438 125 l 1xbb
250 188 m 1
 312 188 l 1
 312 250 l 1
 250 250 l 1
 250 188 l 1
EndSplineSet
Validated: 1
EndChar

StartChar: uni0024
Encoding: 36 36 7
Width: 500
Flags: W
HStem: 0 62<125 188 250 312> 62 126<375 438> 62 63<0 62> 188 62<125 188 250 312> 250 125<0 62> 312 63<312 375> 375 63<125 188>
VStem: 0 125<62 125 250 375> 188 62<62 188 250 312> 312 126<62 188>
LayerCount: 2
Fore
SplineSet
375 312 m 1x05c0
 250 312 l 1
 250 250 l 1x15c0
 375 250 l 1
 375 188 l 1
 438 188 l 1
 438 62 l 1
 375 62 l 1x49c0
 375 0 l 1
 62 0 l 1x81c0
 62 62 l 1
 0 62 l 1
 0 125 l 1
 125 125 l 1x21c0
 125 62 l 1
 188 62 l 1
 188 188 l 1
 62 188 l 1x91c0
 62 250 l 1
 0 250 l 1
 0 375 l 1
 62 375 l 1x09c0
 62 438 l 1
 312 438 l 1x03c0
 312 375 l 1
 375 375 l 1
 375 312 l 1x05c0
250 62 m 1x91c0
 312 62 l 1
 312 188 l 1
 250 188 l 1
 250 62 l 1x91c0
125 250 m 1
 188 250 l 1
 188 375 l 1
 125 375 l 1x13c0
 125 250 l 1
EndSplineSet
Validated: 1
EndChar

StartChar: uni0025
Encoding: 37 37 8
Width: 500
Flags: W
HStem: 0 125<62 125> 0 62<0 62 375 438> 62 126<125 188 312 375 438 500> 125 125<188 250> 188 124<250 312> 188 62<62 125 375 438> 250 125<0 62 125 188 312 375> 312 126<375 438> 375 63<62 125 438 500>
VStem: 0 62<250 375> 62 63<188 250 375 438> 125 125<125 188> 125 63<250 375> 188 124<188 250> 250 125<250 312> 312 63<62 188> 375 63<0 62 188 250> 438 62<62 188>
LayerCount: 2
Fore
SplineSet
500 375 m 1x008040
 438 375 l 1x008040
 438 312 l 1
 375 312 l 1
 375 250 l 1x050240
 438 250 l 1x050080
 438 188 l 1x200080
 500 188 l 1
 500 62 l 1x200040
 438 62 l 1x400080
 438 188 l 1x200080
 375 188 l 1x2001
 375 250 l 1x0402
 312 250 l 1
 312 188 l 1x2204
 375 188 l 1x2201
 375 62 l 1x4001
 438 62 l 1
 438 0 l 1
 375 0 l 1x400080
 375 62 l 1x4001
 312 62 l 1x2001
 312 188 l 1x2004
 250 188 l 1x0810
 250 125 l 1x1010
 188 125 l 1x1004
 188 62 l 1x2004
 125 62 l 1x2008
 125 0 l 1x8008
 0 0 l 1
 0 62 l 1x4048
 62 62 l 1x4020
 62 125 l 1x8020
 125 125 l 1x8010
 125 188 l 1
 188 188 l 1x2024
 188 250 l 1
 250 250 l 1x100a
 250 312 l 1x080a
 312 312 l 1x0801
 312 375 l 1x0201
 375 375 l 1x020080
 375 438 l 1x010080
 500 438 l 1
 500 375 l 1x008040
125 188 m 1x2020
 62 188 l 1x0420
 62 250 l 1x0440
 125 250 l 1x0420
 125 188 l 1x2020
62 250 m 1x0440
 0 250 l 1
 0 375 l 1
 62 375 l 1x0240
 62 250 l 1x0440
125 250 m 1x0420
 125 375 l 1x0220
 188 375 l 1x0208
 188 250 l 1x1008
 125 250 l 1x0420
62 375 m 1x0240
 62 438 l 1
 125 438 l 1x00a0
 125 375 l 1x0220
 62 375 l 1x0240
EndSplineSet
Validated: 5
EndChar

StartChar: uni0026
Encoding: 38 38 9
Width: 500
Flags: W
HStem: 0 125<188 250> 0 62<250 375> 125 63<312 375 438 500> 188 62<250 312> 250 62<312 375> 312 126<250 312 375 438> 375 63<312 375>
VStem: 125 63<125 188> 188 62<250 312> 250 62<312 375> 312 63<250 312> 375 63<62 125 188 250 312 375>
LayerCount: 2
Fore
SplineSet
500 125 m 1x6810
 438 125 l 1
 438 0 l 1x6810
 188 0 l 1x8090
 188 62 l 1x4090
 125 62 l 1
 125 250 l 1x49
 188 250 l 1x4880
 188 312 l 1
 250 312 l 1
 250 250 l 1
 312 250 l 1x14a0
 312 188 l 1x20a0
 188 188 l 1
 188 125 l 1
 250 125 l 1x9140
 250 62 l 1
 375 62 l 1
 375 125 l 1x6150
 312 125 l 1
 312 188 l 1x6020
 375 188 l 1x6010
 375 250 l 1x6820
 438 250 l 1
 438 188 l 1
 500 188 l 1
 500 125 l 1x6810
312 250 m 1x1020
 312 312 l 1x0840
 375 312 l 1
 375 250 l 1x0820
 312 250 l 1x1020
250 312 m 1x0480
 250 438 l 1
 438 438 l 1
 438 312 l 1x0450
 375 312 l 1x0820
 375 375 l 1
 312 375 l 1
 312 312 l 1x0a50
 250 312 l 1x0480
EndSplineSet
Validated: 5
EndChar

StartChar: uni0027
Encoding: 39 39 10
Width: 500
Flags: W
HStem: 312 126<188 250>
VStem: 188 124<312 438> 250 62<250 312>
LayerCount: 2
Fore
SplineSet
250 312 m 1xa0
 188 312 l 1
 188 438 l 1
 312 438 l 1xc0
 312 250 l 1
 250 250 l 1
 250 312 l 1xa0
EndSplineSet
Validated: 1
EndChar

StartChar: uni0028
Encoding: 40 40 11
Width: 500
Flags: W
HStem: 0 125<250 312> 0 62<312 375> 62 126<188 250> 250 125<188 250> 312 126<250 312> 375 63<312 375>
VStem: 125 125<125 188 250 312> 125 63<188 250> 188 124<62 125 312 375> 250 125<0 62 375 438>
LayerCount: 2
Fore
SplineSet
375 0 m 1x4040
 250 0 l 1x8040
 250 62 l 1x2040
 188 62 l 1x2080
 188 125 l 1x8080
 125 125 l 1
 125 312 l 1x8a
 188 312 l 1x8880
 188 375 l 1x1080
 250 375 l 1x1040
 250 438 l 1x0840
 375 438 l 1
 375 375 l 1x0440
 312 375 l 1x0480
 312 312 l 1x0880
 250 312 l 1x0a
 250 250 l 1x12
 188 250 l 1
 188 188 l 1x31
 250 188 l 1x32
 250 125 l 1x82
 312 125 l 1x8080
 312 62 l 1x4080
 375 62 l 1
 375 0 l 1x4040
EndSplineSet
Validated: 1
EndChar

StartChar: uni0029
Encoding: 41 41 12
Width: 500
Flags: W
HStem: 0 125<188 250> 0 62<125 188> 62 126<250 312> 250 125<250 312> 312 126<188 250> 375 63<125 188>
VStem: 125 125<0 62 375 438> 188 124<62 125 312 375> 250 125<125 188 250 312> 312 63<188 250>
LayerCount: 2
Fore
SplineSet
250 62 m 1x22
 250 0 l 1x82
 125 0 l 1
 125 62 l 1x42
 188 62 l 1x41
 188 125 l 1x81
 250 125 l 1x8080
 250 188 l 1x2080
 312 188 l 1
 312 250 l 1x3040
 250 250 l 1x3080
 250 312 l 1x0880
 188 312 l 1x09
 188 375 l 1x05
 125 375 l 1
 125 438 l 1x06
 250 438 l 1x0a
 250 375 l 1x12
 312 375 l 1x11
 312 312 l 1x09
 375 312 l 1
 375 125 l 1x8880
 312 125 l 1x89
 312 62 l 1x21
 250 62 l 1x22
EndSplineSet
Validated: 1
EndChar

StartChar: uni002A
Encoding: 42 42 13
Width: 500
Flags: W
HStem: 62 63<125 188 375 438> 125 187<188 250 312 375> 188 62<125 188 375 438> 312 63<125 188 375 438>
VStem: 125 63<62 125 312 375> 188 187<125 188 250 312> 250 62<62 125 312 375> 375 63<62 125 312 375>
LayerCount: 2
Fore
SplineSet
438 62 m 1x81
 375 62 l 1x81
 375 125 l 1x84
 438 125 l 1
 438 62 l 1x81
438 188 m 1x21
 375 188 l 1
 375 125 l 1xa4
 312 125 l 1x42
 312 62 l 1
 250 62 l 1x82
 250 125 l 1x42
 188 125 l 1
 188 62 l 1
 125 62 l 1
 125 125 l 1
 188 125 l 1x8a
 188 188 l 1xa4
 125 188 l 1
 125 250 l 1xa8
 188 250 l 1xa4
 188 312 l 1
 250 312 l 1x4a
 250 375 l 1
 312 375 l 1x1a
 312 312 l 1x4a
 375 312 l 1x44
 375 250 l 1x24
 438 250 l 1
 438 188 l 1x21
438 312 m 1x11
 375 312 l 1x44
 375 375 l 1
 438 375 l 1
 438 312 l 1x11
188 312 m 1x48
 125 312 l 1
 125 375 l 1
 188 375 l 1x18
 188 312 l 1x48
EndSplineSet
Validated: 5
EndChar

StartChar: uni002B
Encoding: 43 43 14
Width: 500
Flags: W
HStem: 188 62<188 250 312 375>
VStem: 250 62<125 188 250 312>
LayerCount: 2
Fore
SplineSet
375 188 m 1
 312 188 l 1
 312 125 l 1
 250 125 l 1
 250 188 l 1
 188 188 l 1
 188 250 l 1
 250 250 l 1
 250 312 l 1
 312 312 l 1
 312 250 l 1
 375 250 l 1
 375 188 l 1
EndSplineSet
Validated: 1
EndChar

StartChar: uni002C
Encoding: 44 44 15
Width: 500
Flags: W
HStem: 0 21G<188 250> 0 21G<188 250> 62 126<125 188>
VStem: 125 125<62 188> 188 62<0 62>
LayerCount: 2
Fore
SplineSet
188 62 m 1xa8
 125 62 l 1
 125 188 l 1
 250 188 l 1xb0
 250 0 l 1
 188 0 l 1
 188 62 l 1xa8
EndSplineSet
Validated: 1
EndChar

StartChar: uni002D
Encoding: 45 45 16
Width: 500
Flags: W
HStem: 188 62<62 438>
LayerCount: 2
Fore
SplineSet
438 188 m 1
 62 188 l 1
 62 250 l 1
 438 250 l 1
 438 188 l 1
EndSplineSet
Validated: 1
EndChar

StartChar: uni002E
Encoding: 46 46 17
Width: 500
Flags: W
HStem: 0 125<125 250>
VStem: 125 125<0 125>
LayerCount: 2
Fore
SplineSet
125 125 m 1
 250 125 l 1
 250 0 l 1
 125 0 l 1
 125 125 l 1
EndSplineSet
Validated: 1
EndChar

StartChar: uni002F
Encoding: 47 47 18
Width: 500
Flags: W
HStem: 0 125<62 125> 0 62<0 62> 62 126<125 188> 125 125<188 250> 188 124<250 312> 250 125<312 375> 312 126<375 438> 375 63<438 500>
VStem: 0 125<0 62> 62 126<62 125> 125 125<125 188> 188 124<188 250> 250 125<250 312> 312 126<312 375> 375 125<375 438>
LayerCount: 2
Fore
SplineSet
500 375 m 1x0102
 438 375 l 1x0104
 438 312 l 1x0204
 375 312 l 1x0208
 375 250 l 1x0408
 312 250 l 1x0410
 312 188 l 1x0810
 250 188 l 1x0820
 250 125 l 1x1020
 188 125 l 1x1040
 188 62 l 1x2040
 125 62 l 1x2080
 125 0 l 1x8080
 0 0 l 1
 0 62 l 1x4080
 62 62 l 1x4040
 62 125 l 1x8040
 125 125 l 1x8020
 125 188 l 1x2020
 188 188 l 1x2010
 188 250 l 1x1010
 250 250 l 1x1008
 250 312 l 1x0808
 312 312 l 1x0804
 312 375 l 1x0404
 375 375 l 1x0402
 375 438 l 1x0202
 500 438 l 1
 500 375 l 1x0102
EndSplineSet
Validated: 1
EndChar

StartChar: uni0030
Encoding: 48 48 19
Width: 500
Flags: W
HStem: 0 125<188 250> 0 62<250 375> 125 187<62 125 438 500> 312 126<312 375> 375 63<188 312>
VStem: 62 126<125 312> 125 125<62 125> 125 63<312 375> 188 187<0 62 375 438> 312 126<312 375> 375 125<125 312> 375 63<62 125>
LayerCount: 2
Fore
SplineSet
188 62 m 1x4080
 125 62 l 1
 125 125 l 1x62
 62 125 l 1
 62 312 l 1x64
 125 312 l 1
 125 375 l 1
 188 375 l 1x69
 188 125 l 1x8c
 250 125 l 1x8a
 250 62 l 1x42
 375 62 l 1
 375 0 l 1x4080
 188 0 l 1x8080
 188 62 l 1x4080
375 62 m 1x6880
 375 312 l 1x5020
 312 312 l 1x5040
 312 375 l 1
 188 375 l 1x0940
 188 438 l 1x0880
 375 438 l 1x1080
 375 375 l 1x0880
 438 375 l 1
 438 312 l 1x2840
 500 312 l 1
 500 125 l 1x2820
 438 125 l 1
 438 62 l 1x6810
 375 62 l 1x6880
EndSplineSet
Validated: 5
EndChar

StartChar: uni0031
Encoding: 49 49 20
Width: 500
Flags: W
HStem: 0 62<125 250 375 500> 312 63<188 250> 418 20G<250 375> 418 20G<250 375>
VStem: 250 125<62 312 375 438>
LayerCount: 2
Fore
SplineSet
500 0 m 1xe8
 125 0 l 1
 125 62 l 1
 250 62 l 1
 250 312 l 1
 188 312 l 1
 188 375 l 1
 250 375 l 1
 250 438 l 1
 375 438 l 1
 375 62 l 1
 500 62 l 1
 500 0 l 1xe8
EndSplineSet
Validated: 1
EndChar

StartChar: uni0032
Encoding: 50 50 21
Width: 500
Flags: W
HStem: 0 125<62 125> 0 62<312 500> 250 125<438 500> 312 63<62 125> 375 63<188 375>
VStem: 62 126<312 375> 375 125<312 375>
LayerCount: 2
Fore
SplineSet
500 0 m 1x46
 62 0 l 1
 62 125 l 1
 125 125 l 1
 125 188 l 1
 188 188 l 1
 188 250 l 1
 312 250 l 1xa6
 312 312 l 1
 375 312 l 1x16
 375 375 l 1
 188 375 l 1x0e
 188 312 l 1
 62 312 l 1
 62 375 l 1
 125 375 l 1x16
 125 438 l 1
 438 438 l 1x0e
 438 375 l 1
 500 375 l 1
 500 250 l 1
 438 250 l 1
 438 188 l 1
 375 188 l 1
 375 125 l 1
 312 125 l 1xa6
 312 62 l 1
 500 62 l 1
 500 0 l 1x46
EndSplineSet
Validated: 1
EndChar

StartChar: uni0033
Encoding: 51 51 22
Width: 500
Flags: W
HStem: 0 62<188 375> 62 126<438 500> 62 63<62 125> 188 124<250 312> 188 62<188 250> 312 126<375 438> 375 63<125 312 438 500>
VStem: 62 126<62 125> 250 125<250 312> 312 126<312 375> 375 125<62 188>
LayerCount: 2
Fore
SplineSet
500 375 m 1x1320
 438 375 l 1x1340
 438 312 l 1x0540
 375 312 l 1
 375 250 l 1x0d80
 438 250 l 1x0d40
 438 188 l 1x4140
 500 188 l 1
 500 62 l 1x4120
 438 62 l 1x4140
 438 0 l 1
 125 0 l 1x8140
 125 62 l 1
 62 62 l 1
 62 125 l 1
 188 125 l 1x2140
 188 62 l 1
 375 62 l 1
 375 188 l 1x8920
 188 188 l 1
 188 250 l 1
 250 250 l 1x8980
 250 312 l 1x1180
 312 312 l 1
 312 375 l 1x1340
 125 375 l 1
 125 438 l 1
 500 438 l 1
 500 375 l 1x1320
EndSplineSet
Validated: 1
EndChar

StartChar: uni0034
Encoding: 52 52 23
Width: 500
Flags: W
HStem: 0 21G<312 438> 0 21G<312 438> 125 125<62 125> 125 63<188 312 438 500> 250 125<188 250> 312 126<250 312>
VStem: 62 126<188 250> 125 125<250 312> 312 126<0 125 188 312>
LayerCount: 2
Fore
SplineSet
500 125 m 1x1580
 438 125 l 1
 438 0 l 1
 312 0 l 1
 312 125 l 1x9580
 62 125 l 1
 62 250 l 1x2280
 125 250 l 1
 125 312 l 1x2580
 188 312 l 1x2680
 188 375 l 1x0a80
 250 375 l 1x0980
 250 438 l 1
 438 438 l 1
 438 188 l 1
 500 188 l 1
 500 125 l 1x1580
188 188 m 1x1a80
 312 188 l 1
 312 312 l 1
 250 312 l 1x1580
 250 250 l 1x0980
 188 250 l 1
 188 188 l 1x1a80
EndSplineSet
Validated: 1
EndChar

StartChar: uni0035
Encoding: 53 53 24
Width: 500
Flags: W
HStem: 0 62<188 375> 62 63<62 125> 250 62<188 375> 375 63<188 438>
VStem: 62 126<62 125 312 375> 375 125<62 250>
LayerCount: 2
Fore
SplineSet
438 375 m 1xbc
 188 375 l 1
 188 312 l 1
 438 312 l 1
 438 250 l 1
 500 250 l 1
 500 62 l 1
 438 62 l 1x7c
 438 0 l 1
 125 0 l 1xbc
 125 62 l 1
 62 62 l 1
 62 125 l 1
 188 125 l 1x7c
 188 62 l 1
 375 62 l 1
 375 250 l 1
 62 250 l 1
 62 438 l 1
 438 438 l 1
 438 375 l 1xbc
EndSplineSet
Validated: 1
EndChar

StartChar: uni0036
Encoding: 54 54 25
Width: 500
Flags: W
HStem: 0 62<188 375> 62 126<438 500> 188 62<188 375> 312 126<188 250> 375 63<250 438>
VStem: 62 126<62 188 250 312> 125 125<312 375> 375 125<62 188>
LayerCount: 2
Fore
SplineSet
438 375 m 1x0d
 250 375 l 1x0b
 250 312 l 1x13
 188 312 l 1
 188 250 l 1
 438 250 l 1x35
 438 188 l 1
 500 188 l 1
 500 62 l 1
 438 62 l 1x45
 438 0 l 1
 125 0 l 1x83
 125 62 l 1x43
 62 62 l 1
 62 312 l 1x55
 125 312 l 1x53
 125 375 l 1x0b
 188 375 l 1x0d
 188 438 l 1x15
 438 438 l 1
 438 375 l 1x0d
188 62 m 1xa5
 375 62 l 1
 375 188 l 1
 188 188 l 1
 188 62 l 1xa5
EndSplineSet
Validated: 1
EndChar

StartChar: uni0037
Encoding: 55 55 26
Width: 500
Flags: W
HStem: 0 21G<188 312> 0 21G<188 312> 188 124<312 375> 312 126<62 188 438 500> 375 63<188 375>
VStem: 62 126<312 375> 188 124<0 188> 250 125<188 250> 312 126<250 312> 375 125<312 375>
LayerCount: 2
Fore
SplineSet
188 188 m 1xa2
 250 188 l 1
 250 250 l 1xa1
 312 250 l 1
 312 312 l 1xa080
 375 312 l 1
 375 375 l 1
 188 375 l 1xac40
 188 312 l 1
 62 312 l 1
 62 438 l 1
 500 438 l 1
 500 312 l 1x1440
 438 312 l 1
 438 250 l 1x1080
 375 250 l 1
 375 188 l 1x21
 312 188 l 1
 312 0 l 1
 188 0 l 1
 188 188 l 1xa2
EndSplineSet
Validated: 1
EndChar

StartChar: uni0038
Encoding: 56 56 27
Width: 500
Flags: W
HStem: 0 62<125 375> 62 126<62 125 438 500> 125 125<250 375> 188 124<188 250> 250 125<62 125 375 438> 375 63<188 375>
VStem: 62 126<312 375> 62 63<62 188> 375 125<62 125> 375 63<250 375>
LayerCount: 2
Fore
SplineSet
125 62 m 1x8140
 62 62 l 1
 62 188 l 1
 125 188 l 1
 125 250 l 1
 62 250 l 1x4940
 62 375 l 1x4a
 125 375 l 1x49
 125 438 l 1
 375 438 l 1x0540
 375 375 l 1
 438 375 l 1
 438 250 l 1x0940
 375 250 l 1x2140
 375 375 l 1x0940
 188 375 l 1
 188 312 l 1
 250 312 l 1x1640
 250 250 l 1
 375 250 l 1x2240
 375 188 l 1x1240
 500 188 l 1
 500 62 l 1x4080
 438 62 l 1x4040
 438 0 l 1
 125 0 l 1
 125 62 l 1x8140
125 62 m 1x8180
 375 62 l 1
 375 125 l 1
 250 125 l 1xa180
 250 188 l 1x1180
 125 188 l 1x4180
 125 62 l 1x8180
EndSplineSet
Validated: 5
EndChar

StartChar: uni0039
Encoding: 57 57 28
Width: 500
Flags: W
HStem: 0 125<312 375> 0 62<125 312> 188 62<188 375> 250 125<62 125> 375 63<188 375>
VStem: 62 126<250 375> 312 126<62 125> 375 125<125 188 250 375>
LayerCount: 2
Fore
SplineSet
375 62 m 1x45
 375 0 l 1x85
 125 0 l 1
 125 62 l 1
 312 62 l 1x46
 312 125 l 1x86
 375 125 l 1
 375 188 l 1
 125 188 l 1xa5
 125 250 l 1
 62 250 l 1
 62 375 l 1
 125 375 l 1x15
 125 438 l 1
 438 438 l 1
 438 375 l 1x0e
 500 375 l 1
 500 125 l 1x8d
 438 125 l 1x8e
 438 62 l 1x46
 375 62 l 1x45
188 250 m 1x2d
 375 250 l 1
 375 375 l 1
 188 375 l 1
 188 250 l 1x2d
EndSplineSet
Validated: 1
EndChar

StartChar: uni003A
Encoding: 58 58 29
Width: 500
Flags: W
HStem: 125 63<188 250> 250 62<188 250>
VStem: 188 62<125 188 250 312>
LayerCount: 2
Fore
SplineSet
250 125 m 1
 188 125 l 1
 188 188 l 1
 250 188 l 1
 250 125 l 1
250 250 m 1
 188 250 l 1
 188 312 l 1
 250 312 l 1
 250 250 l 1
EndSplineSet
Validated: 1
EndChar

StartChar: uni003B
Encoding: 59 59 30
Width: 500
Flags: W
HStem: 62 63<125 188> 125 63<188 250> 250 62<188 250>
VStem: 125 63<62 125> 188 62<125 188 250 312>
LayerCount: 2
Fore
SplineSet
250 125 m 1x68
 188 125 l 1
 188 62 l 1
 125 62 l 1
 125 125 l 1
 188 125 l 1xb0
 188 188 l 1
 250 188 l 1
 250 125 l 1x68
250 250 m 1x28
 188 250 l 1
 188 312 l 1
 250 312 l 1
 250 250 l 1x28
EndSplineSet
Validated: 5
EndChar

StartChar: uni003C
Encoding: 60 60 31
Width: 500
Flags: W
HStem: 0 125<250 312> 0 62<312 375> 62 126<188 250> 188 62<62 125> 250 125<188 250> 312 126<250 312> 375 63<312 375>
VStem: 62 126<188 250> 125 125<125 188 250 312> 188 124<62 125 312 375> 250 125<0 62 375 438>
LayerCount: 2
Fore
SplineSet
375 0 m 1x4020
 250 0 l 1x8020
 250 62 l 1x2020
 188 62 l 1x2040
 188 125 l 1x8040
 125 125 l 1
 125 188 l 1x9080
 62 188 l 1
 62 250 l 1x91
 125 250 l 1
 125 312 l 1x9480
 188 312 l 1x9440
 188 375 l 1x0840
 250 375 l 1x0820
 250 438 l 1x0420
 375 438 l 1
 375 375 l 1x0220
 312 375 l 1x0240
 312 312 l 1x0440
 250 312 l 1x0480
 250 250 l 1x0880
 188 250 l 1
 188 188 l 1x29
 250 188 l 1x2880
 250 125 l 1x8080
 312 125 l 1x8040
 312 62 l 1x4040
 375 62 l 1
 375 0 l 1x4020
EndSplineSet
Validated: 1
EndChar

StartChar: uni003D
Encoding: 61 61 32
Width: 500
Flags: W
HStem: 125 63<62 438> 250 62<62 438>
LayerCount: 2
Fore
SplineSet
438 125 m 1
 62 125 l 1
 62 188 l 1
 438 188 l 1
 438 125 l 1
438 250 m 1
 62 250 l 1
 62 312 l 1
 438 312 l 1
 438 250 l 1
EndSplineSet
Validated: 1
EndChar

StartChar: uni003E
Encoding: 62 62 33
Width: 500
Flags: W
HStem: 0 125<188 250> 0 62<125 188> 62 126<250 312> 188 62<375 438> 250 125<250 312> 312 126<188 250> 375 63<125 188>
VStem: 125 125<0 62 375 438> 188 124<62 125 312 375> 250 125<125 188 250 312> 312 126<188 250>
LayerCount: 2
Fore
SplineSet
438 188 m 1x1420
 375 188 l 1
 375 125 l 1x9440
 312 125 l 1x9480
 312 62 l 1x2080
 250 62 l 1x21
 250 0 l 1x81
 125 0 l 1
 125 62 l 1x41
 188 62 l 1x4080
 188 125 l 1x8080
 250 125 l 1x8040
 250 188 l 1x2040
 312 188 l 1
 312 250 l 1x2820
 250 250 l 1x2840
 250 312 l 1x0440
 188 312 l 1x0480
 188 375 l 1x0280
 125 375 l 1
 125 438 l 1x03
 250 438 l 1x05
 250 375 l 1x09
 312 375 l 1x0880
 312 312 l 1x0480
 375 312 l 1
 375 250 l 1x1440
 438 250 l 1
 438 188 l 1x1420
EndSplineSet
Validated: 1
EndChar

StartChar: uni003F
Encoding: 63 63 34
Width: 500
Flags: W
HStem: 0 62<188 250> 125 63<188 250> 188 62<250 375> 250 125<375 438> 312 63<62 125> 375 63<125 375>
VStem: 62 63<312 375> 188 62<0 62 125 188> 250 125<188 250> 375 63<250 375>
LayerCount: 2
Fore
SplineSet
250 0 m 1x83
 188 0 l 1
 188 62 l 1
 250 62 l 1
 250 0 l 1x83
250 188 m 1xc3
 250 125 l 1
 188 125 l 1
 188 188 l 1
 250 188 l 1xc3
250 188 m 1
 250 250 l 1
 375 250 l 1
 375 188 l 1xa280
 250 188 l 1
375 250 m 1
 375 375 l 1
 438 375 l 1
 438 250 l 1x9240
 375 250 l 1
125 375 m 1x8a
 125 312 l 1
 62 312 l 1
 62 375 l 1
 125 375 l 1x8a
125 375 m 1
 125 438 l 1
 375 438 l 1x8640
 375 375 l 1x9240
 125 375 l 1
EndSplineSet
Validated: 5
EndChar

StartChar: uni0040
Encoding: 64 64 35
Width: 500
Flags: W
HStem: 0 62<188 375> 125 125<250 312> 250 62<312 375> 375 63<188 375>
VStem: 62 126<62 375> 250 62<125 250> 375 125<125 250 312 375>
LayerCount: 2
Fore
SplineSet
375 0 m 1xbe
 125 0 l 1
 125 62 l 1
 62 62 l 1
 62 375 l 1
 125 375 l 1
 125 438 l 1
 438 438 l 1
 438 375 l 1
 500 375 l 1
 500 125 l 1
 375 125 l 1xde
 375 250 l 1xbe
 312 250 l 1
 312 125 l 1
 250 125 l 1
 250 250 l 1
 312 250 l 1xde
 312 312 l 1
 375 312 l 1
 375 375 l 1
 188 375 l 1
 188 62 l 1
 375 62 l 1
 375 0 l 1xbe
EndSplineSet
Validated: 5
EndChar

StartChar: uni0041
Encoding: 65 65 36
Width: 500
Flags: W
HStem: 0 21G<62 188 375 500> 0 21G<62 188 375 500> 125 63<188 375> 312 126<188 250 312 375> 375 63<250 312>
VStem: 62 126<0 125 188 312> 125 125<312 375> 312 126<312 375> 375 125<0 125 188 312>
LayerCount: 2
Fore
SplineSet
62 312 m 1xb480
 125 312 l 1xb2
 125 375 l 1x2a
 188 375 l 1x2c
 188 438 l 1
 375 438 l 1x3480
 375 375 l 1x2c80
 438 375 l 1x29
 438 312 l 1x31
 500 312 l 1
 500 0 l 1
 375 0 l 1
 375 125 l 1
 188 125 l 1
 188 0 l 1
 62 0 l 1
 62 312 l 1xb480
188 188 m 1x34
 375 188 l 1
 375 312 l 1x3480
 312 312 l 1x31
 312 375 l 1
 250 375 l 1x2b
 250 312 l 1x33
 188 312 l 1
 188 188 l 1x34
EndSplineSet
Validated: 1
EndChar

StartChar: uni0042
Encoding: 66 66 37
Width: 500
Flags: W
HStem: 0 62<188 375> 62 126<438 500> 188 62<188 375> 250 125<438 500> 375 63<188 375>
VStem: 62 126<62 188 250 375> 375 125<62 188 250 375>
LayerCount: 2
Fore
SplineSet
62 438 m 1x8e
 438 438 l 1x8e
 438 375 l 1
 500 375 l 1
 500 250 l 1
 438 250 l 1
 438 188 l 1
 500 188 l 1
 500 62 l 1
 438 62 l 1x56
 438 0 l 1
 62 0 l 1
 62 438 l 1x8e
188 62 m 1
 375 62 l 1
 375 188 l 1
 188 188 l 1xa6
 188 62 l 1
188 250 m 1
 375 250 l 1
 375 375 l 1
 188 375 l 1x2e
 188 250 l 1
EndSplineSet
Validated: 1
EndChar

StartChar: uni0043
Encoding: 67 67 38
Width: 500
Flags: W
HStem: 0 62<250 375> 62 63<438 500> 312 63<438 500> 375 63<250 375>
VStem: 62 126<125 312> 125 125<62 125 312 375> 375 125<62 125 312 375>
LayerCount: 2
Fore
SplineSet
500 62 m 1x46
 438 62 l 1x46
 438 0 l 1
 188 0 l 1x8a
 188 62 l 1x4a
 125 62 l 1
 125 125 l 1x46
 62 125 l 1
 62 312 l 1x6a
 125 312 l 1x66
 125 375 l 1x16
 188 375 l 1
 188 438 l 1
 438 438 l 1x1a
 438 375 l 1
 500 375 l 1
 500 312 l 1
 375 312 l 1x2a
 375 375 l 1
 250 375 l 1x16
 250 312 l 1x26
 188 312 l 1
 188 125 l 1x6a
 250 125 l 1x66
 250 62 l 1
 375 62 l 1x86
 375 125 l 1
 500 125 l 1
 500 62 l 1x46
EndSplineSet
Validated: 1
EndChar

StartChar: uni0044
Encoding: 68 68 39
Width: 500
Flags: W
HStem: 0 125<312 375> 0 62<188 312> 312 126<312 375> 375 63<188 312>
VStem: 62 126<62 375> 312 126<62 125 312 375> 375 125<125 312>
LayerCount: 2
Fore
SplineSet
62 438 m 1x5a
 375 438 l 1x2a
 375 375 l 1x1a
 438 375 l 1x1c
 438 312 l 1x2c
 500 312 l 1
 500 125 l 1xaa
 438 125 l 1xac
 438 62 l 1x4c
 375 62 l 1x4a
 375 0 l 1x8a
 62 0 l 1
 62 438 l 1x5a
188 62 m 1x5c
 312 62 l 1x5c
 312 125 l 1x8c
 375 125 l 1
 375 312 l 1xaa
 312 312 l 1xac
 312 375 l 1
 188 375 l 1
 188 62 l 1x5c
EndSplineSet
Validated: 1
EndChar

StartChar: uni0045
Encoding: 69 69 40
Width: 500
Flags: W
HStem: 0 62<250 500> 188 62<250 438> 375 63<250 500>
VStem: 125 125<62 188 250 375>
LayerCount: 2
Fore
SplineSet
500 0 m 1
 125 0 l 1
 125 438 l 1
 500 438 l 1
 500 375 l 1
 250 375 l 1
 250 250 l 1
 438 250 l 1
 438 188 l 1
 250 188 l 1
 250 62 l 1
 500 62 l 1
 500 0 l 1
EndSplineSet
Validated: 1
EndChar

StartChar: uni0046
Encoding: 70 70 41
Width: 500
Flags: W
HStem: 0 21G<62 188> 0 21G<62 188> 188 62<188 438> 375 63<188 500>
VStem: 62 126<0 188 250 375>
LayerCount: 2
Fore
SplineSet
438 188 m 1xb8
 188 188 l 1
 188 0 l 1
 62 0 l 1
 62 438 l 1
 500 438 l 1
 500 375 l 1
 188 375 l 1
 188 250 l 1
 438 250 l 1
 438 188 l 1xb8
EndSplineSet
Validated: 1
EndChar

StartChar: uni0047
Encoding: 71 71 42
Width: 500
Flags: W
HStem: 0 125<188 250> 0 62<250 375> 188 62<312 375> 312 126<188 250> 375 63<250 500>
VStem: 62 126<125 312> 125 125<62 125 312 375> 375 125<62 188>
LayerCount: 2
Fore
SplineSet
500 375 m 1x2d
 250 375 l 1x2b
 250 312 l 1x33
 188 312 l 1
 188 125 l 1xb5
 250 125 l 1xb3
 250 62 l 1
 375 62 l 1
 375 188 l 1
 312 188 l 1
 312 250 l 1
 500 250 l 1
 500 0 l 1x63
 188 0 l 1xa5
 188 62 l 1x65
 125 62 l 1x63
 125 125 l 1xa3
 62 125 l 1
 62 312 l 1xb5
 125 312 l 1xb3
 125 375 l 1x2b
 188 375 l 1x2d
 188 438 l 1x35
 500 438 l 1
 500 375 l 1x2d
EndSplineSet
Validated: 1
EndChar

StartChar: uni0048
Encoding: 72 72 43
Width: 500
Flags: W
HStem: 0 21G<62 188 375 500> 0 21G<62 188 375 500> 188 62<188 375> 418 20G<62 188 375 500> 418 20G<62 188 375 500>
VStem: 62 126<0 188 250 438> 375 125<0 188 250 438>
LayerCount: 2
Fore
SplineSet
62 438 m 1xb6
 188 438 l 1
 188 250 l 1
 375 250 l 1
 375 438 l 1
 500 438 l 1
 500 0 l 1
 375 0 l 1
 375 188 l 1
 188 188 l 1
 188 0 l 1
 62 0 l 1
 62 438 l 1xb6
EndSplineSet
Validated: 1
EndChar

StartChar: uni0049
Encoding: 73 73 44
Width: 500
Flags: W
HStem: 0 62<125 250 375 500> 375 63<125 250 375 500>
VStem: 250 125<62 375>
LayerCount: 2
Fore
SplineSet
500 0 m 1
 125 0 l 1
 125 62 l 1
 250 62 l 1
 250 375 l 1
 125 375 l 1
 125 438 l 1
 500 438 l 1
 500 375 l 1
 375 375 l 1
 375 62 l 1
 500 62 l 1
 500 0 l 1
EndSplineSet
Validated: 1
EndChar

StartChar: uni004A
Encoding: 74 74 45
Width: 500
Flags: W
HStem: 0 62<188 375> 62 63<62 125> 418 20G<375 500> 418 20G<375 500>
VStem: 62 126<62 125> 375 125<62 438>
LayerCount: 2
Fore
SplineSet
125 62 m 1x4c
 62 62 l 1
 62 125 l 1
 188 125 l 1x4c
 188 62 l 1
 375 62 l 1x8c
 375 438 l 1
 500 438 l 1
 500 62 l 1
 438 62 l 1x6c
 438 0 l 1
 125 0 l 1x8c
 125 62 l 1x4c
EndSplineSet
Validated: 1
EndChar

StartChar: uni004B
Encoding: 75 75 46
Width: 500
Flags: W
HStem: 0 125<375 438> 0 62<438 500> 125 125<188 250> 250 125<312 375> 312 126<375 438> 375 63<438 500>
VStem: 62 126<0 125 250 438> 250 125<250 312> 312 126<312 375> 375 125<375 438>
LayerCount: 2
Fore
SplineSet
500 0 m 1x4240
 312 0 l 1
 312 62 l 1x4280
 250 62 l 1
 250 125 l 1
 188 125 l 1
 188 0 l 1
 62 0 l 1
 62 438 l 1
 188 438 l 1x67
 188 250 l 1
 250 250 l 1
 250 312 l 1x2b
 312 312 l 1x2a80
 312 375 l 1x1280
 375 375 l 1x1240
 375 438 l 1x0a40
 500 438 l 1
 500 375 l 1x0640
 438 375 l 1x0680
 438 312 l 1x0a80
 375 312 l 1x0b
 375 250 l 1x13
 312 250 l 1
 312 188 l 1x1280
 375 188 l 1
 375 125 l 1x9240
 438 125 l 1x9280
 438 62 l 1x4280
 500 62 l 1
 500 0 l 1x4240
EndSplineSet
Validated: 1
EndChar

StartChar: uni004C
Encoding: 76 76 47
Width: 500
Flags: W
HStem: 0 62<250 500> 418 20G<125 250> 418 20G<125 250>
VStem: 125 125<62 438>
LayerCount: 2
Fore
SplineSet
500 0 m 1xd0
 125 0 l 1
 125 438 l 1
 250 438 l 1
 250 62 l 1
 500 62 l 1
 500 0 l 1xd0
EndSplineSet
Validated: 1
EndChar

StartChar: uni004D
Encoding: 77 77 48
Width: 500
Flags: W
HStem: 0 21G<62 188 375 500> 0 21G<62 188 375 500> 188 187<188 250 312 375> 418 20G<62 188 375 500> 418 20G<62 188 375 500>
VStem: 62 126<0 188 375 438> 250 62<125 188> 375 125<0 188 375 438>
LayerCount: 2
Fore
SplineSet
62 438 m 1xb7
 188 438 l 1
 188 375 l 1
 250 375 l 1
 250 312 l 1
 312 312 l 1
 312 375 l 1
 375 375 l 1
 375 438 l 1
 500 438 l 1
 500 0 l 1
 375 0 l 1
 375 188 l 1
 312 188 l 1
 312 125 l 1
 250 125 l 1
 250 188 l 1
 188 188 l 1
 188 0 l 1
 62 0 l 1
 62 438 l 1xb7
EndSplineSet
Validated: 1
EndChar

StartChar: uni004E
Encoding: 78 78 49
Width: 500
Flags: W
HStem: 0 21G<62 188 375 500> 0 21G<62 188 375 500> 418 20G<62 188 375 500> 418 20G<62 188 375 500>
VStem: 62 126<0 188 375 438> 375 125<0 62 250 438>
LayerCount: 2
Fore
SplineSet
62 438 m 1xac
 188 438 l 1
 188 375 l 1
 250 375 l 1
 250 312 l 1
 312 312 l 1
 312 250 l 1
 375 250 l 1
 375 438 l 1
 500 438 l 1
 500 0 l 1
 375 0 l 1
 375 62 l 1
 312 62 l 1
 312 125 l 1
 250 125 l 1
 250 188 l 1
 188 188 l 1
 188 0 l 1
 62 0 l 1
 62 438 l 1xac
EndSplineSet
Validated: 1
EndChar

StartChar: uni004F
Encoding: 79 79 50
Width: 500
Flags: W
HStem: 0 62<188 375> 375 63<188 375>
VStem: 62 126<62 375> 375 125<62 375>
LayerCount: 2
Fore
SplineSet
125 62 m 1
 62 62 l 1
 62 375 l 1
 125 375 l 1
 125 438 l 1
 438 438 l 1
 438 375 l 1
 500 375 l 1
 500 62 l 1
 438 62 l 1
 438 0 l 1
 125 0 l 1
 125 62 l 1
188 62 m 1
 375 62 l 1
 375 375 l 1
 188 375 l 1
 188 62 l 1
EndSplineSet
Validated: 1
EndChar

StartChar: uni0050
Encoding: 80 80 51
Width: 500
Flags: W
HStem: 0 21G<62 188> 0 21G<62 188> 125 63<188 375> 375 63<188 375>
VStem: 62 126<0 125 188 375> 375 125<188 375>
LayerCount: 2
Fore
SplineSet
62 438 m 1xbc
 438 438 l 1
 438 375 l 1
 500 375 l 1
 500 188 l 1
 438 188 l 1
 438 125 l 1
 188 125 l 1
 188 0 l 1
 62 0 l 1
 62 438 l 1xbc
188 188 m 1
 375 188 l 1
 375 375 l 1
 188 375 l 1
 188 188 l 1
EndSplineSet
Validated: 1
EndChar

StartChar: uni0051
Encoding: 81 81 52
Width: 500
Flags: W
HStem: 0 62<188 312 438 500> 125 63<250 312> 375 63<188 375>
VStem: 62 126<62 375> 312 126<62 125> 375 125<188 375> 438 62<0 62>
LayerCount: 2
Fore
SplineSet
500 0 m 1xf2
 438 0 l 1xf2
 438 62 l 1xf8
 500 62 l 1
 500 0 l 1xf2
125 62 m 1
 62 62 l 1
 62 375 l 1
 125 375 l 1
 125 438 l 1
 438 438 l 1
 438 375 l 1xf2
 500 375 l 1xf4
 500 125 l 1xf2
 438 125 l 1
 438 62 l 1xf8
 375 62 l 1
 375 0 l 1xf4
 125 0 l 1
 125 62 l 1
188 62 m 1
 312 62 l 1
 312 125 l 1xf8
 250 125 l 1
 250 188 l 1
 375 188 l 1
 375 375 l 1xf4
 188 375 l 1
 188 62 l 1
EndSplineSet
Validated: 5
EndChar

StartChar: uni0052
Encoding: 82 82 53
Width: 500
Flags: W
HStem: 0 125<375 438> 0 62<438 500> 62 126<250 312> 125 63<188 250> 375 63<188 375>
VStem: 62 126<0 125 188 375> 312 188<0 62 188 250> 375 125<250 375>
LayerCount: 2
Fore
SplineSet
500 0 m 1x4e
 312 0 l 1x4e
 312 62 l 1
 250 62 l 1x2e
 250 125 l 1
 188 125 l 1
 188 0 l 1
 62 0 l 1
 62 438 l 1
 438 438 l 1
 438 375 l 1
 500 375 l 1x5d
 500 188 l 1x5e
 375 188 l 1x5d
 375 125 l 1
 438 125 l 1x8d
 438 62 l 1
 500 62 l 1
 500 0 l 1x4e
188 188 m 1x1d
 312 188 l 1
 312 250 l 1x2e
 375 250 l 1
 375 375 l 1
 188 375 l 1
 188 188 l 1x1d
EndSplineSet
Validated: 1
EndChar

StartChar: uni0053
Encoding: 83 83 54
Width: 500
Flags: W
HStem: 0 62<188 375> 62 126<438 500> 62 63<62 125> 188 62<188 375> 250 125<62 125> 312 63<375 438> 375 63<188 312>
VStem: 62 126<62 125 250 375> 312 126<312 375> 375 125<62 188>
LayerCount: 2
Fore
SplineSet
438 312 m 1x0580
 312 312 l 1x0580
 312 375 l 1
 188 375 l 1
 188 250 l 1x1380
 438 250 l 1
 438 188 l 1x4980
 500 188 l 1
 500 62 l 1x4940
 438 62 l 1x4980
 438 0 l 1
 125 0 l 1x8180
 125 62 l 1
 62 62 l 1
 62 125 l 1
 188 125 l 1x2180
 188 62 l 1
 375 62 l 1
 375 188 l 1
 125 188 l 1x9140
 125 250 l 1
 62 250 l 1
 62 375 l 1
 125 375 l 1x0940
 125 438 l 1
 375 438 l 1x0340
 375 375 l 1x0540
 438 375 l 1
 438 312 l 1x0580
EndSplineSet
Validated: 1
EndChar

StartChar: uni0054
Encoding: 84 84 55
Width: 500
Flags: W
HStem: 0 21G<250 375> 0 21G<250 375> 375 63<125 250 375 500>
VStem: 250 125<0 375>
LayerCount: 2
Fore
SplineSet
500 375 m 1xb0
 375 375 l 1
 375 0 l 1
 250 0 l 1
 250 375 l 1
 125 375 l 1
 125 438 l 1
 500 438 l 1
 500 375 l 1xb0
EndSplineSet
Validated: 1
EndChar

StartChar: uni0055
Encoding: 85 85 56
Width: 500
Flags: W
HStem: 0 62<188 375> 418 20G<62 188 375 500> 418 20G<62 188 375 500>
VStem: 62 126<62 438> 375 125<62 438>
LayerCount: 2
Fore
SplineSet
125 62 m 1xd8
 62 62 l 1
 62 438 l 1
 188 438 l 1
 188 62 l 1
 375 62 l 1
 375 438 l 1
 500 438 l 1
 500 62 l 1
 438 62 l 1
 438 0 l 1
 125 0 l 1
 125 62 l 1xd8
EndSplineSet
Validated: 1
EndChar

StartChar: uni0056
Encoding: 86 86 57
Width: 500
Flags: W
HStem: 0 21G<250 312> 0 21G<250 312> 62 188<188 250 312 375> 418 20G<62 188 375 500> 418 20G<62 188 375 500>
VStem: 62 126<250 438> 250 62<0 62> 375 125<250 438>
LayerCount: 2
Fore
SplineSet
312 62 m 1xb7
 312 0 l 1
 250 0 l 1
 250 62 l 1
 188 62 l 1
 188 125 l 1
 125 125 l 1
 125 188 l 1
 62 188 l 1
 62 438 l 1
 188 438 l 1
 188 250 l 1
 250 250 l 1
 250 188 l 1
 312 188 l 1
 312 250 l 1
 375 250 l 1
 375 438 l 1
 500 438 l 1
 500 188 l 1
 438 188 l 1
 438 125 l 1
 375 125 l 1
 375 62 l 1
 312 62 l 1xb7
EndSplineSet
Validated: 1
EndChar

StartChar: uni0057
Encoding: 87 87 58
Width: 500
Flags: W
HStem: 0 21G<125 188 375 438> 0 21G<125 188 375 438> 62 188<188 250 312 375> 418 20G<62 188 375 500> 418 20G<62 188 375 500>
VStem: 62 126<250 438> 125 125<62 125> 125 63<0 62> 250 62<250 312> 312 126<62 125> 375 125<250 438> 375 63<0 62>
LayerCount: 2
Fore
SplineSet
188 62 m 1xb1
 188 0 l 1
 125 0 l 1xb1
 125 125 l 1xb2
 62 125 l 1
 62 438 l 1
 188 438 l 1
 188 250 l 1
 250 250 l 1
 250 312 l 1
 312 312 l 1
 312 250 l 1
 375 250 l 1
 375 438 l 1
 500 438 l 1
 500 125 l 1xb4a0
 438 125 l 1xb040
 438 0 l 1
 375 0 l 1
 375 62 l 1xb010
 312 62 l 1
 312 125 l 1
 250 125 l 1
 250 62 l 1xb240
 188 62 l 1xb1
EndSplineSet
Validated: 1
EndChar

StartChar: uni0058
Encoding: 88 88 59
Width: 500
Flags: W
HStem: 0 188<125 188 375 438> 0 125<62 125 438 500> 250 188<125 188 375 438> 312 126<62 125 438 500>
VStem: 62 188<62 125 312 375> 62 126<0 62 375 438> 312 188<62 125 312 375> 375 125<0 62 375 438>
LayerCount: 2
Fore
SplineSet
188 62 m 1x44
 188 0 l 1x84
 62 0 l 1x44
 62 125 l 1
 125 125 l 1x48
 125 188 l 1
 188 188 l 1
 188 250 l 1
 125 250 l 1xa4
 125 312 l 1
 62 312 l 1x18
 62 438 l 1x14
 188 438 l 1
 188 375 l 1x24
 250 375 l 1
 250 312 l 1
 312 312 l 1
 312 375 l 1x1a
 375 375 l 1
 375 438 l 1x21
 500 438 l 1x11
 500 312 l 1
 438 312 l 1x12
 438 250 l 1
 375 250 l 1
 375 188 l 1
 438 188 l 1xa1
 438 125 l 1
 500 125 l 1x42
 500 0 l 1x41
 375 0 l 1
 375 62 l 1x81
 312 62 l 1
 312 125 l 1
 250 125 l 1
 250 62 l 1x4a
 188 62 l 1x44
EndSplineSet
Validated: 1
EndChar

StartChar: uni0059
Encoding: 89 89 60
Width: 500
Flags: W
HStem: 0 21G<250 375> 0 21G<250 375> 312 126<125 188 438 500>
VStem: 125 125<312 438> 188 62<250 312> 250 125<0 188> 375 125<312 438> 375 63<250 312>
LayerCount: 2
Fore
SplineSet
250 188 m 1xa4
 188 188 l 1
 188 312 l 1xa8
 125 312 l 1
 125 438 l 1
 250 438 l 1xb0
 250 250 l 1
 375 250 l 1xa9
 375 438 l 1
 500 438 l 1
 500 312 l 1xa2
 438 312 l 1
 438 188 l 1xa1
 375 188 l 1
 375 0 l 1
 250 0 l 1
 250 188 l 1xa4
EndSplineSet
Validated: 1
EndChar

StartChar: uni005A
Encoding: 90 90 61
Width: 500
Flags: W
HStem: 0 125<62 125> 0 62<250 500> 312 126<438 500> 375 63<62 312>
LayerCount: 2
Fore
SplineSet
500 0 m 1x40
 62 0 l 1
 62 125 l 1
 125 125 l 1
 125 188 l 1
 188 188 l 1
 188 250 l 1
 250 250 l 1
 250 312 l 1
 312 312 l 1xa0
 312 375 l 1
 62 375 l 1
 62 438 l 1x10
 500 438 l 1
 500 312 l 1
 438 312 l 1
 438 250 l 1
 375 250 l 1
 375 188 l 1
 312 188 l 1
 312 125 l 1
 250 125 l 1xa0
 250 62 l 1
 500 62 l 1
 500 0 l 1x40
EndSplineSet
Validated: 1
EndChar

StartChar: uni005B
Encoding: 91 91 62
Width: 500
Flags: W
HStem: 0 62<250 375> 375 63<250 375>
VStem: 125 125<62 375>
LayerCount: 2
Fore
SplineSet
375 0 m 1
 125 0 l 1
 125 438 l 1
 375 438 l 1
 375 375 l 1
 250 375 l 1
 250 62 l 1
 375 62 l 1
 375 0 l 1
EndSplineSet
Validated: 1
EndChar

StartChar: uni005C
Encoding: 92 92 63
Width: 500
Flags: W
HStem: 0 125<375 438> 0 62<438 500> 62 126<312 375> 125 125<250 312> 188 124<188 250> 250 125<125 188> 312 126<62 125> 375 63<0 62>
VStem: 0 125<375 438> 62 126<312 375> 125 125<250 312> 188 124<188 250> 250 125<125 188> 312 126<62 125> 375 125<0 62>
LayerCount: 2
Fore
SplineSet
500 0 m 1x4002
 375 0 l 1x8002
 375 62 l 1x2002
 312 62 l 1x2004
 312 125 l 1x1004
 250 125 l 1x1008
 250 188 l 1x0808
 188 188 l 1x0810
 188 250 l 1x0410
 125 250 l 1x0420
 125 312 l 1x0220
 62 312 l 1x0240
 62 375 l 1x0140
 0 375 l 1
 0 438 l 1x0180
 125 438 l 1x0280
 125 375 l 1x0480
 188 375 l 1x0440
 188 312 l 1x0840
 250 312 l 1x0820
 250 250 l 1x1020
 312 250 l 1x1010
 312 188 l 1x2010
 375 188 l 1x2008
 375 125 l 1x8008
 438 125 l 1x8004
 438 62 l 1x4004
 500 62 l 1
 500 0 l 1x4002
EndSplineSet
Validated: 1
EndChar

StartChar: uni005D
Encoding: 93 93 64
Width: 500
Flags: W
HStem: 0 62<125 250> 375 63<125 250>
VStem: 250 125<62 375>
LayerCount: 2
Fore
SplineSet
250 62 m 1
 250 375 l 1
 125 375 l 1
 125 438 l 1
 375 438 l 1
 375 0 l 1
 125 0 l 1
 125 62 l 1
 250 62 l 1
EndSplineSet
Validated: 1
EndChar

StartChar: uni005E
Encoding: 94 94 65
Width: 500
Flags: W
HStem: 188 124<125 188 375 438> 250 125<188 250 312 375> 312 126<250 312>
VStem: 125 125<250 312> 125 63<188 250> 250 62<375 438> 312 126<250 312> 375 63<188 250>
LayerCount: 2
Fore
SplineSet
188 250 m 1x48
 188 188 l 1
 125 188 l 1x88
 125 312 l 1x90
 188 312 l 1x88
 188 375 l 1
 250 375 l 1x4c
 250 438 l 1
 312 438 l 1x2c
 312 375 l 1
 375 375 l 1x4d
 375 312 l 1x8d
 438 312 l 1x82
 438 188 l 1
 375 188 l 1x81
 375 250 l 1x41
 312 250 l 1x42
 312 312 l 1
 250 312 l 1x32
 250 250 l 1x52
 188 250 l 1x48
EndSplineSet
Validated: 1
EndChar

StartChar: uni005F
Encoding: 95 95 66
Width: 500
Flags: W
HStem: 0 62<62 438>
LayerCount: 2
Fore
SplineSet
438 0 m 1
 62 0 l 1
 62 62 l 1
 438 62 l 1
 438 0 l 1
EndSplineSet
Validated: 1
EndChar

StartChar: uni0060
Encoding: 96 96 67
Width: 500
Flags: W
HStem: 312 126<250 312>
VStem: 188 124<312 438> 188 62<250 312>
LayerCount: 2
Fore
SplineSet
250 312 m 1xa0
 250 250 l 1
 188 250 l 1xa0
 188 438 l 1
 312 438 l 1
 312 312 l 1xc0
 250 312 l 1xa0
EndSplineSet
Validated: 1
EndChar

StartChar: uni0061
Encoding: 97 97 68
Width: 500
Flags: W
HStem: 0 21G<62 188 375 500> 0 21G<62 188 375 500> 125 63<188 375> 312 126<188 250 312 375> 375 63<250 312>
VStem: 62 126<0 125 188 312> 125 125<312 375> 312 126<312 375> 375 125<0 125 188 312>
LayerCount: 2
Fore
SplineSet
62 312 m 1xb480
 125 312 l 1xb2
 125 375 l 1x2a
 188 375 l 1x2c
 188 438 l 1
 375 438 l 1x3480
 375 375 l 1x2c80
 438 375 l 1x29
 438 312 l 1x31
 500 312 l 1
 500 0 l 1
 375 0 l 1
 375 125 l 1
 188 125 l 1
 188 0 l 1
 62 0 l 1
 62 312 l 1xb480
188 188 m 1x34
 375 188 l 1
 375 312 l 1x3480
 312 312 l 1x31
 312 375 l 1
 250 375 l 1x2b
 250 312 l 1x33
 188 312 l 1
 188 188 l 1x34
EndSplineSet
Validated: 1
EndChar

StartChar: uni0062
Encoding: 98 98 69
Width: 500
Flags: W
HStem: 0 62<188 375> 62 126<438 500> 188 62<188 375> 250 125<438 500> 375 63<188 375>
VStem: 62 126<62 188 250 375> 375 125<62 188 250 375>
LayerCount: 2
Fore
SplineSet
62 438 m 1x8e
 438 438 l 1x8e
 438 375 l 1
 500 375 l 1
 500 250 l 1
 438 250 l 1
 438 188 l 1
 500 188 l 1
 500 62 l 1
 438 62 l 1x56
 438 0 l 1
 62 0 l 1
 62 438 l 1x8e
188 62 m 1
 375 62 l 1
 375 188 l 1
 188 188 l 1xa6
 188 62 l 1
188 250 m 1
 375 250 l 1
 375 375 l 1
 188 375 l 1x2e
 188 250 l 1
EndSplineSet
Validated: 1
EndChar

StartChar: uni0063
Encoding: 99 99 70
Width: 500
Flags: W
HStem: 0 62<250 375> 62 63<438 500> 312 63<438 500> 375 63<250 375>
VStem: 62 126<125 312> 125 125<62 125 312 375> 375 125<62 125 312 375>
LayerCount: 2
Fore
SplineSet
500 62 m 1x46
 438 62 l 1x46
 438 0 l 1
 188 0 l 1x8a
 188 62 l 1x4a
 125 62 l 1
 125 125 l 1x46
 62 125 l 1
 62 312 l 1x6a
 125 312 l 1x66
 125 375 l 1x16
 188 375 l 1
 188 438 l 1
 438 438 l 1x1a
 438 375 l 1
 500 375 l 1
 500 312 l 1
 375 312 l 1x2a
 375 375 l 1
 250 375 l 1x16
 250 312 l 1x26
 188 312 l 1
 188 125 l 1x6a
 250 125 l 1x66
 250 62 l 1
 375 62 l 1x86
 375 125 l 1
 500 125 l 1
 500 62 l 1x46
EndSplineSet
Validated: 1
EndChar

StartChar: uni0064
Encoding: 100 100 71
Width: 500
Flags: W
HStem: 0 125<312 375> 0 62<188 312> 312 126<312 375> 375 63<188 312>
VStem: 62 126<62 375> 312 126<62 125 312 375> 375 125<125 312>
LayerCount: 2
Fore
SplineSet
62 438 m 1x5a
 375 438 l 1x2a
 375 375 l 1x1a
 438 375 l 1x1c
 438 312 l 1x2c
 500 312 l 1
 500 125 l 1xaa
 438 125 l 1xac
 438 62 l 1x4c
 375 62 l 1x4a
 375 0 l 1x8a
 62 0 l 1
 62 438 l 1x5a
188 62 m 1x5c
 312 62 l 1x5c
 312 125 l 1x8c
 375 125 l 1
 375 312 l 1xaa
 312 312 l 1xac
 312 375 l 1
 188 375 l 1
 188 62 l 1x5c
EndSplineSet
Validated: 1
EndChar

StartChar: uni0065
Encoding: 101 101 72
Width: 500
Flags: W
HStem: 0 62<250 500> 188 62<250 438> 375 63<250 500>
VStem: 125 125<62 188 250 375>
LayerCount: 2
Fore
SplineSet
500 0 m 1
 125 0 l 1
 125 438 l 1
 500 438 l 1
 500 375 l 1
 250 375 l 1
 250 250 l 1
 438 250 l 1
 438 188 l 1
 250 188 l 1
 250 62 l 1
 500 62 l 1
 500 0 l 1
EndSplineSet
Validated: 1
EndChar

StartChar: uni0066
Encoding: 102 102 73
Width: 500
Flags: W
HStem: 0 21G<62 188> 0 21G<62 188> 188 62<188 438> 375 63<188 500>
VStem: 62 126<0 188 250 375>
LayerCount: 2
Fore
SplineSet
438 188 m 1xb8
 188 188 l 1
 188 0 l 1
 62 0 l 1
 62 438 l 1
 500 438 l 1
 500 375 l 1
 188 375 l 1
 188 250 l 1
 438 250 l 1
 438 188 l 1xb8
EndSplineSet
Validated: 1
EndChar

StartChar: uni0067
Encoding: 103 103 74
Width: 500
Flags: W
HStem: 0 125<188 250> 0 62<250 375> 188 62<312 375> 312 126<188 250> 375 63<250 500>
VStem: 62 126<125 312> 125 125<62 125 312 375> 375 125<62 188>
LayerCount: 2
Fore
SplineSet
500 375 m 1x2d
 250 375 l 1x2b
 250 312 l 1x33
 188 312 l 1
 188 125 l 1xb5
 250 125 l 1xb3
 250 62 l 1
 375 62 l 1
 375 188 l 1
 312 188 l 1
 312 250 l 1
 500 250 l 1
 500 0 l 1x63
 188 0 l 1xa5
 188 62 l 1x65
 125 62 l 1x63
 125 125 l 1xa3
 62 125 l 1
 62 312 l 1xb5
 125 312 l 1xb3
 125 375 l 1x2b
 188 375 l 1x2d
 188 438 l 1x35
 500 438 l 1
 500 375 l 1x2d
EndSplineSet
Validated: 1
EndChar

StartChar: uni0068
Encoding: 104 104 75
Width: 500
Flags: W
HStem: 0 21G<62 188 375 500> 0 21G<62 188 375 500> 188 62<188 375> 418 20G<62 188 375 500> 418 20G<62 188 375 500>
VStem: 62 126<0 188 250 438> 375 125<0 188 250 438>
LayerCount: 2
Fore
SplineSet
62 438 m 1xb6
 188 438 l 1
 188 250 l 1
 375 250 l 1
 375 438 l 1
 500 438 l 1
 500 0 l 1
 375 0 l 1
 375 188 l 1
 188 188 l 1
 188 0 l 1
 62 0 l 1
 62 438 l 1xb6
EndSplineSet
Validated: 1
EndChar

StartChar: uni0069
Encoding: 105 105 76
Width: 500
Flags: W
HStem: 0 62<125 250 375 500> 375 63<125 250 375 500>
VStem: 250 125<62 375>
LayerCount: 2
Fore
SplineSet
500 0 m 1
 125 0 l 1
 125 62 l 1
 250 62 l 1
 250 375 l 1
 125 375 l 1
 125 438 l 1
 500 438 l 1
 500 375 l 1
 375 375 l 1
 375 62 l 1
 500 62 l 1
 500 0 l 1
EndSplineSet
Validated: 1
EndChar

StartChar: uni006A
Encoding: 106 106 77
Width: 500
Flags: W
HStem: 0 62<188 375> 62 63<62 125> 418 20G<375 500> 418 20G<375 500>
VStem: 62 126<62 125> 375 125<62 438>
LayerCount: 2
Fore
SplineSet
125 62 m 1x4c
 62 62 l 1
 62 125 l 1
 188 125 l 1x4c
 188 62 l 1
 375 62 l 1x8c
 375 438 l 1
 500 438 l 1
 500 62 l 1
 438 62 l 1x6c
 438 0 l 1
 125 0 l 1x8c
 125 62 l 1x4c
EndSplineSet
Validated: 1
EndChar

StartChar: uni006B
Encoding: 107 107 78
Width: 500
Flags: W
HStem: 0 125<375 438> 0 62<438 500> 125 125<188 250> 250 125<312 375> 312 126<375 438> 375 63<438 500>
VStem: 62 126<0 125 250 438> 250 125<250 312> 312 126<312 375> 375 125<375 438>
LayerCount: 2
Fore
SplineSet
500 0 m 1x4240
 312 0 l 1
 312 62 l 1x4280
 250 62 l 1
 250 125 l 1
 188 125 l 1
 188 0 l 1
 62 0 l 1
 62 438 l 1
 188 438 l 1x67
 188 250 l 1
 250 250 l 1
 250 312 l 1x2b
 312 312 l 1x2a80
 312 375 l 1x1280
 375 375 l 1x1240
 375 438 l 1x0a40
 500 438 l 1
 500 375 l 1x0640
 438 375 l 1x0680
 438 312 l 1x0a80
 375 312 l 1x0b
 375 250 l 1x13
 312 250 l 1
 312 188 l 1x1280
 375 188 l 1
 375 125 l 1x9240
 438 125 l 1x9280
 438 62 l 1x4280
 500 62 l 1
 500 0 l 1x4240
EndSplineSet
Validated: 1
EndChar

StartChar: uni006C
Encoding: 108 108 79
Width: 500
Flags: W
HStem: 0 62<250 500> 418 20G<125 250> 418 20G<125 250>
VStem: 125 125<62 438>
LayerCount: 2
Fore
SplineSet
500 0 m 1xd0
 125 0 l 1
 125 438 l 1
 250 438 l 1
 250 62 l 1
 500 62 l 1
 500 0 l 1xd0
EndSplineSet
Validated: 1
EndChar

StartChar: uni006D
Encoding: 109 109 80
Width: 500
Flags: W
HStem: 0 21G<62 188 375 500> 0 21G<62 188 375 500> 188 187<188 250 312 375> 418 20G<62 188 375 500> 418 20G<62 188 375 500>
VStem: 62 126<0 188 375 438> 250 62<125 188> 375 125<0 188 375 438>
LayerCount: 2
Fore
SplineSet
62 438 m 1xb7
 188 438 l 1
 188 375 l 1
 250 375 l 1
 250 312 l 1
 312 312 l 1
 312 375 l 1
 375 375 l 1
 375 438 l 1
 500 438 l 1
 500 0 l 1
 375 0 l 1
 375 188 l 1
 312 188 l 1
 312 125 l 1
 250 125 l 1
 250 188 l 1
 188 188 l 1
 188 0 l 1
 62 0 l 1
 62 438 l 1xb7
EndSplineSet
Validated: 1
EndChar

StartChar: uni006E
Encoding: 110 110 81
Width: 500
Flags: W
HStem: 0 21G<62 188 375 500> 0 21G<62 188 375 500> 418 20G<62 188 375 500> 418 20G<62 188 375 500>
VStem: 62 126<0 188 375 438> 375 125<0 62 250 438>
LayerCount: 2
Fore
SplineSet
62 438 m 1xac
 188 438 l 1
 188 375 l 1
 250 375 l 1
 250 312 l 1
 312 312 l 1
 312 250 l 1
 375 250 l 1
 375 438 l 1
 500 438 l 1
 500 0 l 1
 375 0 l 1
 375 62 l 1
 312 62 l 1
 312 125 l 1
 250 125 l 1
 250 188 l 1
 188 188 l 1
 188 0 l 1
 62 0 l 1
 62 438 l 1xac
EndSplineSet
Validated: 1
EndChar

StartChar: uni006F
Encoding: 111 111 82
Width: 500
Flags: W
HStem: 0 62<188 375> 375 63<188 375>
VStem: 62 126<62 375> 375 125<62 375>
LayerCount: 2
Fore
SplineSet
125 62 m 1
 62 62 l 1
 62 375 l 1
 125 375 l 1
 125 438 l 1
 438 438 l 1
 438 375 l 1
 500 375 l 1
 500 62 l 1
 438 62 l 1
 438 0 l 1
 125 0 l 1
 125 62 l 1
188 62 m 1
 375 62 l 1
 375 375 l 1
 188 375 l 1
 188 62 l 1
EndSplineSet
Validated: 1
EndChar

StartChar: uni0070
Encoding: 112 112 83
Width: 500
Flags: W
HStem: 0 21G<62 188> 0 21G<62 188> 125 63<188 375> 375 63<188 375>
VStem: 62 126<0 125 188 375> 375 125<188 375>
LayerCount: 2
Fore
SplineSet
62 438 m 1xbc
 438 438 l 1
 438 375 l 1
 500 375 l 1
 500 188 l 1
 438 188 l 1
 438 125 l 1
 188 125 l 1
 188 0 l 1
 62 0 l 1
 62 438 l 1xbc
188 188 m 1
 375 188 l 1
 375 375 l 1
 188 375 l 1
 188 188 l 1
EndSplineSet
Validated: 1
EndChar

StartChar: uni0071
Encoding: 113 113 84
Width: 500
Flags: W
HStem: 0 62<188 312 438 500> 125 63<250 312> 375 63<188 375>
VStem: 62 126<62 375> 312 126<62 125> 375 125<188 375> 438 62<0 62>
LayerCount: 2
Fore
SplineSet
500 0 m 1xf2
 438 0 l 1xf2
 438 62 l 1xf8
 500 62 l 1
 500 0 l 1xf2
125 62 m 1
 62 62 l 1
 62 375 l 1
 125 375 l 1
 125 438 l 1
 438 438 l 1
 438 375 l 1xf2
 500 375 l 1xf4
 500 125 l 1xf2
 438 125 l 1
 438 62 l 1xf8
 375 62 l 1
 375 0 l 1xf4
 125 0 l 1
 125 62 l 1
188 62 m 1
 312 62 l 1
 312 125 l 1xf8
 250 125 l 1
 250 188 l 1
 375 188 l 1
 375 375 l 1xf4
 188 375 l 1
 188 62 l 1
EndSplineSet
Validated: 5
EndChar

StartChar: uni0072
Encoding: 114 114 85
Width: 500
Flags: W
HStem: 0 125<375 438> 0 62<438 500> 62 126<250 312> 125 63<188 250> 375 63<188 375>
VStem: 62 126<0 125 188 375> 312 188<0 62 188 250> 375 125<250 375>
LayerCount: 2
Fore
SplineSet
500 0 m 1x4e
 312 0 l 1x4e
 312 62 l 1
 250 62 l 1x2e
 250 125 l 1
 188 125 l 1
 188 0 l 1
 62 0 l 1
 62 438 l 1
 438 438 l 1
 438 375 l 1
 500 375 l 1x5d
 500 188 l 1x5e
 375 188 l 1x5d
 375 125 l 1
 438 125 l 1x8d
 438 62 l 1
 500 62 l 1
 500 0 l 1x4e
188 188 m 1x1d
 312 188 l 1
 312 250 l 1x2e
 375 250 l 1
 375 375 l 1
 188 375 l 1
 188 188 l 1x1d
EndSplineSet
Validated: 1
EndChar

StartChar: uni0073
Encoding: 115 115 86
Width: 500
Flags: W
HStem: 0 62<188 375> 62 126<438 500> 62 63<62 125> 188 62<188 375> 250 125<62 125> 312 63<375 438> 375 63<188 312>
VStem: 62 126<62 125 250 375> 312 126<312 375> 375 125<62 188>
LayerCount: 2
Fore
SplineSet
438 312 m 1x0580
 312 312 l 1x0580
 312 375 l 1
 188 375 l 1
 188 250 l 1x1380
 438 250 l 1
 438 188 l 1x4980
 500 188 l 1
 500 62 l 1x4940
 438 62 l 1x4980
 438 0 l 1
 125 0 l 1x8180
 125 62 l 1
 62 62 l 1
 62 125 l 1
 188 125 l 1x2180
 188 62 l 1
 375 62 l 1
 375 188 l 1
 125 188 l 1x9140
 125 250 l 1
 62 250 l 1
 62 375 l 1
 125 375 l 1x0940
 125 438 l 1
 375 438 l 1x0340
 375 375 l 1x0540
 438 375 l 1
 438 312 l 1x0580
EndSplineSet
Validated: 1
EndChar

StartChar: uni0074
Encoding: 116 116 87
Width: 500
Flags: W
HStem: 0 21G<250 375> 0 21G<250 375> 375 63<125 250 375 500>
VStem: 250 125<0 375>
LayerCount: 2
Fore
SplineSet
500 375 m 1xb0
 375 375 l 1
 375 0 l 1
 250 0 l 1
 250 375 l 1
 125 375 l 1
 125 438 l 1
 500 438 l 1
 500 375 l 1xb0
EndSplineSet
Validated: 1
EndChar

StartChar: uni0075
Encoding: 117 117 88
Width: 500
Flags: W
HStem: 0 62<188 375> 418 20G<62 188 375 500> 418 20G<62 188 375 500>
VStem: 62 126<62 438> 375 125<62 438>
LayerCount: 2
Fore
SplineSet
125 62 m 1xd8
 62 62 l 1
 62 438 l 1
 188 438 l 1
 188 62 l 1
 375 62 l 1
 375 438 l 1
 500 438 l 1
 500 62 l 1
 438 62 l 1
 438 0 l 1
 125 0 l 1
 125 62 l 1xd8
EndSplineSet
Validated: 1
EndChar

StartChar: uni0076
Encoding: 118 118 89
Width: 500
Flags: W
HStem: 0 21G<250 312> 0 21G<250 312> 62 188<188 250 312 375> 418 20G<62 188 375 500> 418 20G<62 188 375 500>
VStem: 62 126<250 438> 250 62<0 62> 375 125<250 438>
LayerCount: 2
Fore
SplineSet
312 62 m 1xb7
 312 0 l 1
 250 0 l 1
 250 62 l 1
 188 62 l 1
 188 125 l 1
 125 125 l 1
 125 188 l 1
 62 188 l 1
 62 438 l 1
 188 438 l 1
 188 250 l 1
 250 250 l 1
 250 188 l 1
 312 188 l 1
 312 250 l 1
 375 250 l 1
 375 438 l 1
 500 438 l 1
 500 188 l 1
 438 188 l 1
 438 125 l 1
 375 125 l 1
 375 62 l 1
 312 62 l 1xb7
EndSplineSet
Validated: 1
EndChar

StartChar: uni0077
Encoding: 119 119 90
Width: 500
Flags: W
HStem: 0 21G<125 188 375 438> 0 21G<125 188 375 438> 62 188<188 250 312 375> 418 20G<62 188 375 500> 418 20G<62 188 375 500>
VStem: 62 126<250 438> 125 125<62 125> 125 63<0 62> 250 62<250 312> 312 126<62 125> 375 125<250 438> 375 63<0 62>
LayerCount: 2
Fore
SplineSet
188 62 m 1xb1
 188 0 l 1
 125 0 l 1xb1
 125 125 l 1xb2
 62 125 l 1
 62 438 l 1
 188 438 l 1
 188 250 l 1
 250 250 l 1
 250 312 l 1
 312 312 l 1
 312 250 l 1
 375 250 l 1
 375 438 l 1
 500 438 l 1
 500 125 l 1xb4a0
 438 125 l 1xb040
 438 0 l 1
 375 0 l 1
 375 62 l 1xb010
 312 62 l 1
 312 125 l 1
 250 125 l 1
 250 62 l 1xb240
 188 62 l 1xb1
EndSplineSet
Validated: 1
EndChar

StartChar: uni0078
Encoding: 120 120 91
Width: 500
Flags: W
HStem: 0 188<125 188 375 438> 0 125<62 125 438 500> 250 188<125 188 375 438> 312 126<62 125 438 500>
VStem: 62 188<62 125 312 375> 62 126<0 62 375 438> 312 188<62 125 312 375> 375 125<0 62 375 438>
LayerCount: 2
Fore
SplineSet
188 62 m 1x44
 188 0 l 1x84
 62 0 l 1x44
 62 125 l 1
 125 125 l 1x48
 125 188 l 1
 188 188 l 1
 188 250 l 1
 125 250 l 1xa4
 125 312 l 1
 62 312 l 1x18
 62 438 l 1x14
 188 438 l 1
 188 375 l 1x24
 250 375 l 1
 250 312 l 1
 312 312 l 1
 312 375 l 1x1a
 375 375 l 1
 375 438 l 1x21
 500 438 l 1x11
 500 312 l 1
 438 312 l 1x12
 438 250 l 1
 375 250 l 1
 375 188 l 1
 438 188 l 1xa1
 438 125 l 1
 500 125 l 1x42
 500 0 l 1x41
 375 0 l 1
 375 62 l 1x81
 312 62 l 1
 312 125 l 1
 250 125 l 1
 250 62 l 1x4a
 188 62 l 1x44
EndSplineSet
Validated: 1
EndChar

StartChar: uni0079
Encoding: 121 121 92
Width: 500
Flags: W
HStem: 0 21G<250 375> 0 21G<250 375> 312 126<125 188 438 500>
VStem: 125 125<312 438> 188 62<250 312> 250 125<0 188> 375 125<312 438> 375 63<250 312>
LayerCount: 2
Fore
SplineSet
250 188 m 1xa4
 188 188 l 1
 188 312 l 1xa8
 125 312 l 1
 125 438 l 1
 250 438 l 1xb0
 250 250 l 1
 375 250 l 1xa9
 375 438 l 1
 500 438 l 1
 500 312 l 1xa2
 438 312 l 1
 438 188 l 1xa1
 375 188 l 1
 375 0 l 1
 250 0 l 1
 250 188 l 1xa4
EndSplineSet
Validated: 1
EndChar

StartChar: uni007A
Encoding: 122 122 93
Width: 500
Flags: W
HStem: 0 125<62 125> 0 62<250 500> 312 126<438 500> 375 63<62 312>
LayerCount: 2
Fore
SplineSet
500 0 m 1x40
 62 0 l 1
 62 125 l 1
 125 125 l 1
 125 188 l 1
 188 188 l 1
 188 250 l 1
 250 250 l 1
 250 312 l 1
 312 312 l 1xa0
 312 375 l 1
 62 375 l 1
 62 438 l 1x10
 500 438 l 1
 500 312 l 1
 438 312 l 1
 438 250 l 1
 375 250 l 1
 375 188 l 1
 312 188 l 1
 312 125 l 1
 250 125 l 1xa0
 250 62 l 1
 500 62 l 1
 500 0 l 1x40
EndSplineSet
Validated: 1
EndChar

StartChar: uni007B
Encoding: 123 123 94
Width: 500
Flags: W
HStem: 0 125<250 312> 0 62<312 375> 125 63<125 188> 188 62<250 312> 250 62<125 188> 312 126<250 312> 375 63<312 375>
VStem: 125 125<125 188 250 312> 188 124<62 125 188 250 312 375> 250 125<0 62 375 438>
LayerCount: 2
Fore
SplineSet
375 0 m 1x4040
 250 0 l 1x8040
 250 62 l 1x4040
 188 62 l 1
 188 125 l 1x6080
 125 125 l 1
 125 188 l 1x61
 188 188 l 1
 188 250 l 1x6880
 125 250 l 1
 125 312 l 1x69
 188 312 l 1
 188 375 l 1x6a80
 250 375 l 1x6a40
 250 438 l 1x0440
 375 438 l 1
 375 375 l 1x0240
 312 375 l 1x0280
 312 312 l 1x0480
 250 312 l 1
 250 250 l 1x15
 312 250 l 1
 312 188 l 1x1480
 250 188 l 1
 250 125 l 1x95
 312 125 l 1x9480
 312 62 l 1x4080
 375 62 l 1
 375 0 l 1x4040
EndSplineSet
Validated: 1
EndChar

StartChar: uni007C
Encoding: 124 124 95
Width: 500
Flags: W
HStem: 0 21G<250 375> 0 21G<250 375> 418 20G<250 375> 418 20G<250 375>
VStem: 250 125<0 438>
LayerCount: 2
Fore
SplineSet
250 438 m 1xa8
 375 438 l 1
 375 0 l 1
 250 0 l 1
 250 438 l 1xa8
EndSplineSet
Validated: 1
EndChar

StartChar: uni007D
Encoding: 125 125 96
Width: 500
Flags: W
HStem: 0 125<188 250> 0 62<125 188> 125 63<312 375> 188 62<188 250> 250 62<312 375> 312 126<188 250> 375 63<125 188>
VStem: 125 125<0 62 375 438> 188 124<62 125 188 250 312 375> 250 125<125 188 250 312>
LayerCount: 2
Fore
SplineSet
375 125 m 1x2a40
 312 125 l 1
 312 62 l 1x6a80
 250 62 l 1x6b
 250 0 l 1x81
 125 0 l 1
 125 62 l 1x41
 188 62 l 1x4080
 188 125 l 1x8080
 250 125 l 1
 250 188 l 1x9040
 188 188 l 1
 188 250 l 1x9080
 250 250 l 1
 250 312 l 1x9440
 188 312 l 1x9480
 188 375 l 1x0280
 125 375 l 1
 125 438 l 1x03
 250 438 l 1x05
 250 375 l 1x03
 312 375 l 1
 312 312 l 1x0a80
 375 312 l 1
 375 250 l 1x0a40
 312 250 l 1
 312 188 l 1x2a80
 375 188 l 1
 375 125 l 1x2a40
EndSplineSet
Validated: 1
EndChar

StartChar: uni007E
Encoding: 126 126 97
Width: 500
Flags: W
HStem: 125 125<62 125 250 312> 188 124<188 250 375 438>
VStem: 62 126<125 188> 125 125<250 312> 250 125<125 188> 312 126<250 312>
LayerCount: 2
Fore
SplineSet
375 188 m 1x48
 375 125 l 1
 250 125 l 1x88
 250 188 l 1
 188 188 l 1x68
 188 125 l 1
 62 125 l 1
 62 250 l 1xa8
 125 250 l 1x90
 125 312 l 1
 250 312 l 1x50
 250 250 l 1
 312 250 l 1x94
 312 312 l 1
 438 312 l 1
 438 188 l 1x54
 375 188 l 1x48
EndSplineSet
Validated: 1
EndChar

StartChar: uni2018
Encoding: 8216 8216 98
Width: 500
Flags: W
HStem: 250 125<250 312> 418 20G<188 250> 418 20G<188 250>
VStem: 188 124<250 375> 188 62<375 438>
LayerCount: 2
Fore
SplineSet
188 438 m 1xc8
 250 438 l 1
 250 375 l 1xc8
 312 375 l 1
 312 250 l 1
 188 250 l 1xd0
 188 438 l 1xc8
EndSplineSet
Validated: 1
EndChar

StartChar: uni2019
Encoding: 8217 8217 99
Width: 500
Flags: W
HStem: 312 126<188 250>
VStem: 188 124<312 438> 250 62<250 312>
LayerCount: 2
Fore
SplineSet
250 312 m 1xa0
 188 312 l 1
 188 438 l 1
 312 438 l 1xc0
 312 250 l 1
 250 250 l 1
 250 312 l 1xa0
EndSplineSet
Validated: 1
EndChar

StartChar: uni201C
Encoding: 8220 8220 100
Width: 500
Flags: W
HStem: 250 188<125 188 312 375> 250 125<188 250 375 438>
VStem: 125 125<250 375> 125 63<375 438> 312 126<250 375> 312 63<375 438>
LayerCount: 2
Fore
SplineSet
125 438 m 1x90
 188 438 l 1x90
 188 375 l 1x50
 250 375 l 1
 250 250 l 1x60
 125 250 l 1xa0
 125 438 l 1x90
312 438 m 1x84
 375 438 l 1x84
 375 375 l 1x44
 438 375 l 1
 438 250 l 1x48
 312 250 l 1x88
 312 438 l 1x84
EndSplineSet
Validated: 1
EndChar

StartChar: uni201D
Encoding: 8221 8221 101
Width: 500
Flags: W
HStem: 250 188<188 250 375 438> 312 126<125 188 312 375>
VStem: 125 125<312 438> 188 62<250 312> 312 126<312 438> 375 63<250 312>
LayerCount: 2
Fore
SplineSet
188 312 m 1x50
 125 312 l 1
 125 438 l 1x60
 250 438 l 1xa0
 250 250 l 1
 188 250 l 1x90
 188 312 l 1x50
375 312 m 1x44
 312 312 l 1
 312 438 l 1x48
 438 438 l 1x88
 438 250 l 1
 375 250 l 1x84
 375 312 l 1x44
EndSplineSet
Validated: 1
EndChar

StartChar: uni203C
Encoding: 8252 8252 102
Width: 500
Flags: W
HStem: 0 125<125 250 375 500> 188 250<125 250 375 500>
VStem: 125 125<0 125 188 438> 375 125<0 125 188 438>
LayerCount: 2
Fore
SplineSet
125 125 m 1
 250 125 l 1
 250 0 l 1
 125 0 l 1
 125 125 l 1
375 125 m 1
 500 125 l 1
 500 0 l 1
 375 0 l 1
 375 125 l 1
125 438 m 1
 250 438 l 1
 250 188 l 1
 125 188 l 1
 125 438 l 1
375 438 m 1
 500 438 l 1
 500 188 l 1
 375 188 l 1
 375 438 l 1
EndSplineSet
Validated: 1
EndChar

StartChar: uni2160
Encoding: 8544 8544 103
Width: 500
Flags: W
HStem: 0 62<125 188 312 375> 375 63<125 188 312 375>
VStem: 188 124<62 375>
LayerCount: 2
Fore
SplineSet
375 0 m 1
 125 0 l 1
 125 62 l 1
 188 62 l 1
 188 375 l 1
 125 375 l 1
 125 438 l 1
 375 438 l 1
 375 375 l 1
 312 375 l 1
 312 62 l 1
 375 62 l 1
 375 0 l 1
EndSplineSet
Validated: 1
EndChar

StartChar: uni2161
Encoding: 8545 8545 104
Width: 500
Flags: W
HStem: 0 62<0 62 188 312 438 500> 375 63<0 62 188 312 438 500>
VStem: 62 126<62 375> 312 126<62 375>
LayerCount: 2
Fore
SplineSet
500 0 m 1
 0 0 l 1
 0 62 l 1
 62 62 l 1
 62 375 l 1
 0 375 l 1
 0 438 l 1
 500 438 l 1
 500 375 l 1
 438 375 l 1
 438 62 l 1
 500 62 l 1
 500 0 l 1
188 62 m 1
 312 62 l 1
 312 375 l 1
 188 375 l 1
 188 62 l 1
EndSplineSet
Validated: 1
EndChar

StartChar: uniE021
Encoding: 57377 57377 105
Width: 500
Flags: W
HStem: 0 62<188 312> 418 20G<188 312> 418 20G<188 312>
VStem: 188 124<0 62 125 438>
LayerCount: 2
Fore
SplineSet
312 0 m 1x90
 188 0 l 1
 188 62 l 1
 312 62 l 1
 312 0 l 1x90
188 438 m 1xd0
 312 438 l 1
 312 125 l 1
 188 125 l 1
 188 438 l 1xd0
EndSplineSet
Validated: 1
EndChar

StartChar: uniE022
Encoding: 57378 57378 106
Width: 500
Flags: W
HStem: 0 62<125 250 375 500> 125 313<125 250 375 500>
VStem: 125 125<0 62 125 438> 375 125<0 62 125 438>
LayerCount: 2
Fore
SplineSet
250 0 m 1
 125 0 l 1
 125 62 l 1
 250 62 l 1
 250 0 l 1
500 0 m 1
 375 0 l 1
 375 62 l 1
 500 62 l 1
 500 0 l 1
125 438 m 1
 250 438 l 1
 250 125 l 1
 125 125 l 1
 125 438 l 1
375 438 m 1
 500 438 l 1
 500 125 l 1
 375 125 l 1
 375 438 l 1
EndSplineSet
Validated: 1
EndChar

StartChar: uniE025
Encoding: 57381 57381 107
Width: 500
Flags: W
HStem: 0 62<188 375> 62 63<62 125> 188 124<188 375> 250 188<62 188> 375 63<188 438>
VStem: 62 126<62 125 312 375> 375 125<62 188>
LayerCount: 2
Fore
SplineSet
438 375 m 1x0e
 188 375 l 1
 188 312 l 1
 438 312 l 1x2e
 438 250 l 1
 500 250 l 1
 500 62 l 1
 438 62 l 1x56
 438 0 l 1
 125 0 l 1x86
 125 62 l 1
 62 62 l 1
 62 125 l 1
 188 125 l 1x46
 188 62 l 1
 375 62 l 1
 375 188 l 1
 188 188 l 1xa6
 188 250 l 1
 62 250 l 1
 62 438 l 1x16
 438 438 l 1
 438 375 l 1x0e
EndSplineSet
Validated: 1
EndChar

StartChar: uniE030
Encoding: 57392 57392 108
Width: 500
Flags: W
HStem: 0 62<188 312> 188 62<250 312> 312 63<188 312>
VStem: 62 126<62 125 188 312> 312 126<62 188 250 312>
LayerCount: 2
Fore
SplineSet
125 62 m 1
 62 62 l 1
 62 312 l 1
 125 312 l 1
 125 375 l 1
 375 375 l 1
 375 312 l 1
 438 312 l 1
 438 62 l 1
 375 62 l 1
 375 0 l 1
 125 0 l 1
 125 62 l 1
188 62 m 1
 312 62 l 1
 312 188 l 1
 250 188 l 1
 250 250 l 1
 312 250 l 1
 312 312 l 1
 188 312 l 1
 188 188 l 1
 250 188 l 1
 250 125 l 1
 188 125 l 1
 188 62 l 1
EndSplineSet
Validated: 5
EndChar

StartChar: uniE031
Encoding: 57393 57393 109
Width: 500
Flags: W
HStem: 0 62<62 188 312 438> 250 62<125 188>
VStem: 188 124<62 250 312 375>
LayerCount: 2
Fore
SplineSet
438 0 m 1
 62 0 l 1
 62 62 l 1
 188 62 l 1
 188 250 l 1
 125 250 l 1
 125 312 l 1
 188 312 l 1
 188 375 l 1
 312 375 l 1
 312 62 l 1
 438 62 l 1
 438 0 l 1
EndSplineSet
Validated: 1
EndChar

StartChar: uniE032
Encoding: 57394 57394 110
Width: 500
Flags: W
HStem: 0 125<125 188> 0 62<62 125 250 438> 125 125<250 312> 250 62<62 125 375 438> 312 63<188 312>
VStem: 62 126<250 312> 125 125<62 125> 188 124<125 188> 250 125<188 250> 312 126<250 312>
LayerCount: 2
Fore
SplineSet
438 0 m 1x6240
 62 0 l 1
 62 62 l 1x6440
 125 62 l 1x62
 125 125 l 1x82
 188 125 l 1
 188 188 l 1x81
 250 188 l 1
 250 250 l 1x2080
 312 250 l 1
 312 312 l 1
 188 312 l 1x2c40
 188 250 l 1
 62 250 l 1
 62 312 l 1x1440
 125 312 l 1x12
 125 375 l 1x0a
 375 375 l 1x0880
 375 312 l 1x1080
 438 312 l 1
 438 250 l 1x1040
 375 250 l 1
 375 188 l 1x1080
 312 188 l 1
 312 125 l 1x21
 250 125 l 1
 250 62 l 1
 438 62 l 1
 438 0 l 1x6240
EndSplineSet
Validated: 1
EndChar

StartChar: uniE033
Encoding: 57395 57395 111
Width: 500
Flags: W
HStem: 0 62<188 312> 62 63<62 125 375 438> 188 62<188 250> 250 125<312 375> 312 63<62 250 375 438>
VStem: 62 126<62 125> 188 124<188 250> 250 125<125 188 250 312> 312 126<62 125>
LayerCount: 2
Fore
SplineSet
438 62 m 1x6080
 375 62 l 1x61
 375 0 l 1
 125 0 l 1x81
 125 62 l 1
 62 62 l 1
 62 125 l 1
 188 125 l 1x45
 188 62 l 1
 312 62 l 1x8480
 312 125 l 1x4480
 250 125 l 1
 250 188 l 1x61
 188 188 l 1
 188 250 l 1x62
 250 250 l 1
 250 312 l 1x69
 62 312 l 1
 62 375 l 1
 438 375 l 1
 438 312 l 1x6c80
 375 312 l 1x69
 375 250 l 1x11
 312 250 l 1x12
 312 188 l 1x22
 375 188 l 1
 375 125 l 1x61
 438 125 l 1
 438 62 l 1x6080
EndSplineSet
Validated: 1
EndChar

StartChar: uniE034
Encoding: 57396 57396 112
Width: 500
Flags: W
HStem: 0 21G<250 375> 0 21G<250 375> 62 126<62 125> 62 63<188 250 375 438> 188 124<188 250>
VStem: 62 126<125 188> 250 125<0 62 125 188 312 375>
LayerCount: 2
Fore
SplineSet
438 62 m 1x1e
 375 62 l 1
 375 0 l 1
 250 0 l 1
 250 62 l 1x9e
 62 62 l 1
 62 188 l 1
 125 188 l 1x26
 125 250 l 1
 188 250 l 1
 188 312 l 1
 250 312 l 1
 250 375 l 1
 375 375 l 1
 375 125 l 1
 438 125 l 1
 438 62 l 1x1e
188 125 m 1
 250 125 l 1
 250 188 l 1
 188 188 l 1
 188 125 l 1
EndSplineSet
Validated: 1
EndChar

StartChar: uniE035
Encoding: 57397 57397 113
Width: 500
Flags: W
HStem: 0 62<188 312> 62 126<375 438> 62 63<62 125> 188 62<188 312> 312 63<188 438>
VStem: 62 126<62 125 250 312> 312 126<62 188>
LayerCount: 2
Fore
SplineSet
438 312 m 1x9e
 188 312 l 1
 188 250 l 1
 375 250 l 1x9e
 375 188 l 1
 438 188 l 1
 438 62 l 1
 375 62 l 1x4e
 375 0 l 1
 125 0 l 1x8e
 125 62 l 1
 62 62 l 1
 62 125 l 1
 188 125 l 1x2e
 188 62 l 1
 312 62 l 1
 312 188 l 1
 62 188 l 1
 62 375 l 1
 438 375 l 1
 438 312 l 1x9e
EndSplineSet
Validated: 1
EndChar

StartChar: uniE036
Encoding: 57398 57398 114
Width: 500
Flags: W
HStem: 0 62<188 312> 62 126<375 438> 188 62<188 312> 312 63<188 375>
VStem: 62 126<62 188 250 312> 312 126<62 188>
LayerCount: 2
Fore
SplineSet
375 312 m 1x5c
 188 312 l 1
 188 250 l 1
 375 250 l 1x3c
 375 188 l 1
 438 188 l 1
 438 62 l 1
 375 62 l 1x5c
 375 0 l 1
 125 0 l 1x9c
 125 62 l 1
 62 62 l 1
 62 312 l 1
 125 312 l 1
 125 375 l 1
 375 375 l 1
 375 312 l 1x5c
188 62 m 1xbc
 312 62 l 1
 312 188 l 1
 188 188 l 1
 188 62 l 1xbc
EndSplineSet
Validated: 1
EndChar

StartChar: uniE037
Encoding: 57399 57399 115
Width: 500
Flags: W
HStem: 0 125<125 188> 125 125<250 312> 250 125<375 438> 312 63<62 312>
VStem: 125 125<0 125> 188 124<125 188> 250 125<188 250> 312 126<250 312>
LayerCount: 2
Fore
SplineSet
125 125 m 1x88
 188 125 l 1
 188 188 l 1x84
 250 188 l 1
 250 250 l 1x42
 312 250 l 1
 312 312 l 1
 62 312 l 1
 62 375 l 1x51
 438 375 l 1
 438 250 l 1x21
 375 250 l 1
 375 188 l 1x22
 312 188 l 1
 312 125 l 1x44
 250 125 l 1x48
 250 0 l 1
 125 0 l 1
 125 125 l 1x88
EndSplineSet
Validated: 1
EndChar

StartChar: uniE038
Encoding: 57400 57400 116
Width: 500
Flags: W
HStem: 0 62<188 312> 62 126<62 125 375 438> 250 62<62 125 375 438> 312 63<188 312>
VStem: 62 126<62 188 250 312> 125 250<0 62 188 250 312 375> 312 126<62 188 250 312>
LayerCount: 2
Fore
SplineSet
438 250 m 1x22
 375 250 l 1
 375 188 l 1x64
 438 188 l 1
 438 62 l 1x62
 375 62 l 1x64
 375 0 l 1
 125 0 l 1x84
 125 62 l 1x44
 62 62 l 1
 62 188 l 1x48
 125 188 l 1
 125 250 l 1x64
 62 250 l 1
 62 312 l 1x68
 125 312 l 1x64
 125 375 l 1
 375 375 l 1x14
 375 312 l 1x24
 438 312 l 1
 438 250 l 1x22
188 62 m 1x8a
 312 62 l 1x8a
 312 188 l 1
 188 188 l 1x4a
 188 62 l 1x8a
188 250 m 1x2a
 312 250 l 1x2a
 312 312 l 1
 188 312 l 1x1a
 188 250 l 1x2a
EndSplineSet
Validated: 1
EndChar

StartChar: uniE039
Encoding: 57401 57401 117
Width: 500
Flags: W
HStem: 0 125<250 312> 0 62<125 250> 188 62<188 312> 250 62<62 125> 312 63<188 312>
VStem: 62 126<250 312> 250 125<62 125> 312 126<125 188 250 312>
LayerCount: 2
Fore
SplineSet
312 62 m 1x45
 312 0 l 1x85
 125 0 l 1
 125 62 l 1
 250 62 l 1x46
 250 125 l 1x86
 312 125 l 1
 312 188 l 1
 125 188 l 1xa5
 125 250 l 1
 62 250 l 1
 62 312 l 1
 125 312 l 1x15
 125 375 l 1
 375 375 l 1
 375 312 l 1x0e
 438 312 l 1
 438 125 l 1x8d
 375 125 l 1x8e
 375 62 l 1x46
 312 62 l 1x45
188 250 m 1x2d
 312 250 l 1
 312 312 l 1
 188 312 l 1
 188 250 l 1x2d
EndSplineSet
Validated: 1
EndChar

StartChar: uniE04D
Encoding: 57421 57421 118
Width: 500
Flags: W
HStem: 0 21G<62 188 375 500> 0 21G<62 188 375 500> 125 125<250 312> 188 124<188 250 312 375>
VStem: 62 126<0 188 312 375> 250 62<125 188> 375 125<0 188 312 375>
LayerCount: 2
Fore
SplineSet
62 375 m 1x9e
 188 375 l 1
 188 312 l 1
 250 312 l 1x9e
 250 250 l 1
 312 250 l 1x2e
 312 312 l 1
 375 312 l 1
 375 375 l 1
 500 375 l 1
 500 0 l 1
 375 0 l 1
 375 188 l 1
 312 188 l 1x9e
 312 125 l 1
 250 125 l 1x2e
 250 188 l 1
 188 188 l 1
 188 0 l 1
 62 0 l 1
 62 375 l 1x9e
EndSplineSet
Validated: 1
EndChar

StartChar: uniE06D
Encoding: 57453 57453 119
Width: 500
Flags: W
HStem: 0 21G<62 125 250 312 438 500> 0 21G<62 125 250 312 438 500> 250 62<125 250 312 438>
VStem: 62 63<0 250> 250 62<0 250> 312 126<250 312> 438 62<0 250>
LayerCount: 2
Fore
SplineSet
62 312 m 1xb8
 250 312 l 1
 250 250 l 1
 312 250 l 1
 312 0 l 1
 250 0 l 1
 250 250 l 1
 125 250 l 1
 125 0 l 1
 62 0 l 1
 62 312 l 1xb8
438 250 m 1xb4
 500 250 l 1
 500 0 l 1
 438 0 l 1xb2
 438 250 l 1xb4
312 250 m 1x38
 312 312 l 1
 438 312 l 1
 438 250 l 1x34
 312 250 l 1x38
EndSplineSet
Validated: 5
EndChar
